<svg id="svg" version="1.1" width="25px" height="25px" viewBox="0 0 400 298.6831913245546" xmlns="http://www.w3.org/2000/svg" xmlns:xlink="http://www.w3.org/1999/xlink" ><g id="svgg"><path id="path0" d="M0.000 149.365 L 0.000 298.730 200.000 298.730 L 400.000 298.730 400.000 149.365 L 400.000 0.000 200.000 0.000 L 0.000 0.000 0.000 149.365 M50.458 58.735 C 56.634 61.301,63.412 64.132,65.519 65.026 C 67.627 65.920,72.063 67.774,75.378 69.146 C 92.471 76.221,98.006 78.518,106.348 81.998 C 120.217 87.785,119.964 87.679,133.926 93.473 C 141.126 96.461,151.544 100.801,157.078 103.117 C 178.609 112.131,187.576 115.793,188.723 116.043 L 189.694 116.254 189.694 142.369 L 189.694 168.484 184.068 168.484 C 177.464 168.484,177.969 168.721,178.866 166.046 C 181.843 157.170,180.598 147.290,175.549 139.715 C 160.790 117.575,128.796 128.585,128.629 155.862 C 128.615 158.202,128.519 160.118,128.415 160.118 C 128.194 160.120,126.322 157.935,112.799 141.897 C 109.544 138.036,105.450 133.191,103.702 131.130 C 101.953 129.069,98.775 125.310,96.639 122.777 C 94.503 120.243,91.209 116.351,89.319 114.126 C 81.819 105.302,81.707 105.153,82.584 105.153 C 83.015 105.153,87.294 105.753,92.094 106.486 C 102.774 108.118,119.426 110.540,119.723 110.504 C 120.059 110.464,115.732 109.253,105.309 106.470 C 100.054 105.067,91.384 102.710,86.040 101.232 L 76.326 98.545 74.797 96.845 C 72.340 94.113,62.440 82.317,62.437 82.119 C 62.434 81.857,79.639 86.087,94.358 89.967 C 97.712 90.851,97.202 90.478,92.680 88.738 C 90.422 87.869,86.087 86.178,83.047 84.979 C 80.007 83.781,73.474 81.246,68.529 79.347 C 56.890 74.876,55.627 74.300,54.520 72.950 C 54.026 72.347,50.295 67.922,46.229 63.116 C 42.162 58.310,38.835 54.309,38.835 54.224 C 38.835 53.921,39.368 54.128,50.458 58.735 M356.684 54.263 C 356.684 54.525,355.609 55.831,347.244 65.728 L 340.042 74.250 332.306 77.301 C 324.518 80.373,316.776 83.390,305.096 87.904 C 301.614 89.250,298.805 90.391,298.854 90.440 C 298.961 90.547,301.075 90.043,306.647 88.582 C 310.053 87.689,330.964 82.460,332.855 82.029 C 333.561 81.868,331.377 84.658,325.512 91.412 C 325.155 91.822,323.662 93.608,322.193 95.379 C 320.447 97.485,319.259 98.658,318.761 98.770 C 318.342 98.863,314.167 99.994,309.485 101.282 C 301.764 103.406,282.007 108.743,277.734 109.859 C 276.784 110.107,276.059 110.363,276.123 110.427 C 276.230 110.534,296.223 107.642,307.495 105.889 C 314.845 104.746,314.583 104.447,310.462 109.267 C 308.528 111.529,305.265 115.382,303.211 117.828 C 301.158 120.275,297.125 125.056,294.249 128.452 C 291.374 131.849,287.341 136.621,285.288 139.058 C 283.234 141.494,279.940 145.382,277.967 147.696 C 275.995 150.011,272.784 153.820,270.831 156.161 C 266.650 161.176,267.003 160.989,267.248 158.057 C 268.553 142.408,256.094 127.895,241.326 127.862 C 223.113 127.821,210.436 147.696,216.863 166.216 C 217.200 167.186,217.476 168.093,217.476 168.232 C 217.476 168.665,206.199 168.545,206.023 168.111 C 205.940 167.905,205.862 170.117,205.849 173.026 L 205.825 178.316 207.991 178.404 L 210.157 178.491 210.194 180.956 L 210.231 183.420 197.573 183.420 L 184.914 183.420 184.914 180.881 L 184.914 178.342 187.455 178.342 L 189.995 178.342 189.919 144.660 L 189.843 110.978 187.666 110.890 L 185.489 110.802 185.575 108.202 L 185.661 105.601 198.208 105.601 L 210.754 105.601 210.754 108.140 L 210.754 110.680 208.290 110.766 L 205.825 110.853 205.825 113.807 L 205.825 116.762 207.692 116.006 C 208.719 115.591,210.097 115.012,210.754 114.720 C 211.412 114.428,215.444 112.746,219.716 110.982 C 223.988 109.218,231.306 106.162,235.979 104.190 C 240.652 102.219,244.962 100.434,245.557 100.224 C 246.152 100.014,247.235 99.574,247.965 99.245 C 248.694 98.917,253.592 96.873,258.850 94.703 C 264.108 92.533,271.703 89.370,275.728 87.673 C 279.754 85.977,284.055 84.187,285.288 83.696 C 286.520 83.204,289.410 82.003,291.710 81.026 C 294.010 80.049,298.111 78.337,300.822 77.221 C 303.532 76.104,307.834 74.319,310.381 73.254 C 312.928 72.189,318.170 70.010,322.031 68.413 C 333.372 63.723,351.663 56.086,355.190 54.569 C 356.391 54.052,356.684 53.992,356.684 54.263 M199.767 79.686 C 200.440 80.467,201.240 81.374,201.545 81.703 C 206.497 87.040,209.704 90.870,209.500 91.201 C 209.071 91.897,198.356 102.014,197.952 102.103 C 197.737 102.151,196.563 101.082,195.345 99.726 C 192.574 96.645,187.279 90.798,186.781 90.271 C 186.152 89.605,186.284 89.428,190.366 85.480 C 198.985 77.144,198.065 77.711,199.767 79.686 M89.821 202.018 C 91.493 203.866,93.110 205.646,93.414 205.975 C 93.718 206.303,95.374 208.128,97.095 210.029 C 103.815 217.452,106.746 220.616,106.990 220.712 C 107.130 220.767,107.244 215.954,107.244 210.017 L 107.244 199.223 108.962 199.313 L 110.680 199.403 110.757 213.825 C 110.845 230.089,110.896 229.735,108.775 227.455 C 108.178 226.813,106.145 224.609,104.256 222.558 C 102.367 220.506,99.141 217.011,97.087 214.790 C 95.034 212.570,92.491 209.779,91.438 208.588 C 90.385 207.397,89.444 206.423,89.347 206.423 C 89.250 206.423,89.171 211.296,89.171 217.252 L 89.171 228.081 87.379 228.081 L 85.586 228.081 85.509 213.368 L 85.431 198.656 86.106 198.657 C 86.586 198.659,87.662 199.632,89.821 202.018 M222.330 199.550 L 224.347 200.233 224.347 202.283 C 224.347 203.410,224.293 204.332,224.227 204.332 C 224.162 204.332,223.370 203.943,222.467 203.468 C 214.163 199.100,204.748 204.503,204.826 213.592 C 204.903 222.579,213.971 227.795,222.330 223.661 L 224.347 222.663 224.347 224.807 L 224.347 226.951 222.330 227.624 C 205.539 233.224,193.362 214.750,205.707 202.405 C 209.299 198.814,216.506 197.576,222.330 199.550 M333.234 198.986 C 335.410 199.581,338.462 202.532,338.462 204.042 C 338.462 204.663,335.433 206.149,335.255 205.615 C 333.454 200.213,324.126 201.420,325.158 206.921 C 325.588 209.214,326.254 209.689,331.915 211.743 C 338.179 214.014,340.427 217.978,338.451 223.262 C 335.797 230.354,323.977 230.234,321.293 223.088 C 320.629 221.320,320.780 220.938,322.448 220.179 C 324.138 219.409,324.038 219.389,324.275 220.538 C 325.584 226.878,335.176 226.352,335.176 219.940 C 335.176 217.445,333.868 216.381,328.526 214.530 C 316.329 210.304,320.788 195.582,333.234 198.986 M60.717 199.925 C 60.676 200.049,60.642 206.468,60.642 214.190 L 60.642 228.230 58.850 228.230 L 57.058 228.230 57.058 213.877 L 57.058 199.523 58.925 199.612 C 59.951 199.661,60.758 199.802,60.717 199.925 M127.999 200.075 C 128.112 200.362,129.595 204.429,131.294 209.111 C 135.699 221.248,135.995 222.007,136.220 221.745 C 136.330 221.615,137.062 219.761,137.844 217.625 C 138.627 215.489,139.913 211.994,140.703 209.858 C 141.493 207.722,142.649 204.529,143.272 202.763 L 144.405 199.552 146.437 199.552 C 148.929 199.552,149.053 198.636,145.314 207.801 C 143.579 212.054,140.932 218.599,139.433 222.345 C 135.679 231.721,136.666 232.493,129.465 214.545 C 126.280 206.608,123.674 199.987,123.674 199.833 C 123.674 199.270,127.772 199.499,127.999 200.075 M176.848 213.891 L 176.848 228.230 175.056 228.230 L 173.264 228.230 173.264 213.891 L 173.264 199.552 175.056 199.552 L 176.848 199.552 176.848 213.891 M262.824 201.120 L 262.733 202.689 258.626 202.772 L 254.518 202.855 254.518 215.542 L 254.518 228.230 252.577 228.230 L 250.635 228.230 250.635 215.542 L 250.635 202.855 246.527 202.772 L 242.420 202.689 242.329 201.120 L 242.239 199.552 252.577 199.552 L 262.914 199.552 262.824 201.120 M283.854 209.933 C 283.940 219.956,283.966 220.356,284.598 221.537 C 287.394 226.763,295.533 226.737,298.607 221.491 L 299.368 220.192 299.340 209.872 L 299.311 199.552 301.261 199.552 L 303.211 199.552 303.211 209.996 C 303.211 219.936,303.180 220.523,302.572 222.149 C 299.308 230.873,284.538 231.191,280.907 222.615 L 280.060 220.612 279.971 210.082 L 279.882 199.552 281.823 199.552 L 283.765 199.552 283.854 209.933 " stroke="none" fill="#1434c4" fill-rule="evenodd"></path><path id="path1" d="M39.918 55.042 C 40.040 55.247,41.156 56.609,42.400 58.069 C 43.643 59.529,45.870 62.169,47.349 63.935 C 54.469 72.441,55.714 73.849,56.465 74.237 C 57.263 74.650,64.235 77.381,83.495 84.828 C 96.296 89.777,99.801 91.187,99.658 91.330 C 99.535 91.454,74.952 85.383,67.419 83.368 C 64.985 82.717,63.036 82.305,63.088 82.452 C 63.162 82.664,73.195 94.617,75.728 97.511 C 76.437 98.322,78.621 99.021,88.872 101.722 C 92.980 102.804,99.903 104.682,104.257 105.896 C 108.611 107.110,114.556 108.735,117.469 109.506 C 125.985 111.762,124.340 111.706,108.738 109.207 C 101.932 108.117,83.662 105.452,82.995 105.452 C 82.474 105.452,83.576 106.814,95.892 121.388 C 97.453 123.235,101.103 127.564,104.002 131.007 C 110.544 138.775,117.945 147.535,119.640 149.515 C 120.343 150.336,121.823 152.084,122.927 153.398 C 125.456 156.406,125.983 157.027,127.184 158.419 L 128.155 159.543 128.155 156.435 C 128.155 126.042,165.382 116.450,178.091 143.569 C 180.822 149.397,181.515 158.145,179.734 164.302 C 179.283 165.863,178.885 167.341,178.852 167.588 C 178.799 167.969,179.584 168.049,184.093 168.124 L 189.395 168.212 189.395 142.395 L 189.395 116.578 188.275 116.279 C 187.659 116.114,182.584 114.063,176.998 111.721 C 171.412 109.379,165.900 107.093,164.750 106.641 C 161.916 105.526,150.408 100.752,148.893 100.063 C 148.223 99.758,146.946 99.226,146.055 98.882 C 145.165 98.537,144.033 98.070,143.540 97.845 C 143.047 97.619,141.568 97.008,140.254 96.488 C 138.940 95.967,135.530 94.537,132.678 93.311 C 129.825 92.085,126.195 90.563,124.612 89.929 C 121.039 88.499,112.485 84.953,111.277 84.401 C 110.784 84.176,108.566 83.249,106.348 82.342 C 98.223 79.020,95.056 77.703,90.878 75.911 C 88.531 74.904,84.431 73.193,81.767 72.109 C 79.103 71.026,75.512 69.534,73.786 68.794 C 72.061 68.055,68.566 66.603,66.019 65.567 C 63.473 64.532,58.432 62.445,54.817 60.929 C 48.090 58.109,41.615 55.422,40.386 54.940 C 39.865 54.735,39.751 54.760,39.918 55.042 M351.755 56.364 C 349.619 57.268,346.796 58.451,345.482 58.994 C 340.827 60.916,333.524 63.966,332.935 64.235 C 332.606 64.385,331.262 64.927,329.948 65.439 C 328.633 65.951,326.861 66.689,326.009 67.078 C 325.158 67.467,320.654 69.351,316.002 71.264 C 311.349 73.177,305.325 75.689,302.614 76.847 C 299.903 78.004,294.660 80.194,290.963 81.714 C 278.063 87.015,266.879 91.653,261.987 93.732 C 259.276 94.884,251.143 98.270,243.913 101.255 C 236.684 104.241,229.694 107.137,228.379 107.690 C 216.957 112.496,213.519 113.928,210.080 115.314 L 206.121 116.910 206.197 142.473 L 206.273 168.036 210.754 168.113 C 213.219 168.155,215.665 168.116,216.189 168.028 L 217.143 167.866 216.683 166.607 C 212.625 155.503,216.012 141.238,224.407 134.071 C 241.857 119.172,266.343 131.105,267.325 154.986 L 267.513 159.562 271.397 155.012 C 273.532 152.509,276.355 149.168,277.670 147.587 C 280.327 144.391,283.126 141.086,287.389 136.110 C 288.955 134.282,291.173 131.643,292.317 130.246 C 293.461 128.850,295.675 126.220,297.236 124.403 C 309.412 110.231,313.304 105.452,312.669 105.452 C 311.989 105.452,292.308 108.344,286.333 109.322 C 273.291 111.457,269.885 111.681,276.475 109.971 C 278.611 109.416,285.332 107.589,291.412 105.910 C 297.491 104.232,306.212 101.862,310.793 100.645 L 319.121 98.432 323.788 92.932 C 326.354 89.907,329.515 86.236,330.812 84.775 C 332.926 82.393,333.080 82.140,332.306 82.330 C 331.830 82.447,329.223 83.126,326.512 83.838 C 323.801 84.551,316.945 86.280,311.277 87.681 C 305.609 89.081,299.917 90.504,298.628 90.842 C 294.887 91.822,295.635 91.344,301.483 89.014 C 307.347 86.678,307.770 86.514,313.219 84.460 C 316.307 83.297,324.081 80.260,336.072 75.535 C 339.985 73.993,339.680 74.218,342.665 70.650 C 344.040 69.007,345.975 66.718,346.966 65.563 C 347.957 64.408,349.373 62.733,350.112 61.840 C 350.851 60.946,351.863 59.740,352.360 59.159 C 354.995 56.079,356.107 54.670,355.886 54.694 C 355.750 54.709,353.891 55.460,351.755 56.364 M193.428 83.097 C 190.799 85.588,188.183 88.066,187.614 88.604 L 186.580 89.582 188.212 91.326 C 189.109 92.285,190.985 94.343,192.380 95.900 C 193.775 97.457,195.602 99.456,196.439 100.342 L 197.962 101.953 201.969 98.075 C 204.172 95.942,206.750 93.469,207.697 92.580 L 209.420 90.963 208.290 89.768 C 207.668 89.111,205.481 86.693,203.430 84.395 C 201.379 82.096,199.365 79.845,198.954 79.392 L 198.208 78.568 193.428 83.097 M185.810 108.140 L 185.810 110.530 187.901 110.530 L 189.993 110.530 189.993 144.586 L 189.993 178.641 187.603 178.641 L 185.213 178.641 185.213 181.031 L 185.213 183.420 197.610 183.420 L 210.007 183.420 210.007 181.031 L 210.007 178.641 207.767 178.641 L 205.527 178.641 205.527 144.586 L 205.527 110.530 208.066 110.530 L 210.605 110.530 210.605 108.140 L 210.605 105.751 198.208 105.751 L 185.810 105.751 185.810 108.140 M193.876 144.137 C 193.876 165.997,193.774 177.474,193.577 177.595 C 193.379 177.718,193.279 166.490,193.279 144.137 C 193.279 121.785,193.379 110.557,193.577 110.680 C 193.774 110.801,193.876 122.278,193.876 144.137 M198.058 144.155 C 198.058 166.496,197.958 177.718,197.760 177.595 C 197.423 177.387,197.324 111.066,197.660 110.729 C 197.769 110.620,197.904 110.530,197.959 110.530 C 198.013 110.530,198.058 125.661,198.058 144.155 M202.240 143.970 C 202.240 165.942,202.138 177.474,201.942 177.595 C 201.743 177.718,201.643 166.496,201.643 144.155 C 201.643 121.938,201.744 110.530,201.942 110.530 C 202.139 110.530,202.240 121.876,202.240 143.970 M60.482 213.891 C 60.482 221.695,60.520 224.888,60.567 220.986 C 60.614 217.084,60.614 210.698,60.567 206.796 C 60.520 202.894,60.482 206.087,60.482 213.891 M173.401 213.742 C 173.401 220.807,173.440 223.654,173.487 220.069 C 173.535 216.485,173.535 210.704,173.487 207.224 C 173.440 203.744,173.401 206.677,173.401 213.742 M250.772 215.385 C 250.772 222.367,250.811 225.224,250.859 221.733 C 250.906 218.241,250.906 212.528,250.859 209.037 C 250.811 205.545,250.772 208.402,250.772 215.385 " stroke="none" fill="#ffffff" fill-rule="evenodd"></path><path id="path2" d="M85.736 213.294 L 85.736 227.931 87.379 227.931 L 89.022 227.931 89.034 216.804 L 89.047 205.676 90.155 206.909 C 90.764 207.587,94.971 212.157,99.505 217.065 C 104.039 221.974,108.186 226.494,108.722 227.110 C 110.592 229.260,110.530 229.710,110.530 213.891 L 110.530 199.552 108.891 199.552 L 107.252 199.552 107.173 210.469 L 107.095 221.386 101.867 215.648 C 98.992 212.493,95.108 208.218,93.237 206.150 C 88.506 200.922,86.319 198.656,86.004 198.656 C 85.849 198.656,85.736 204.821,85.736 213.294 M213.294 198.856 C 207.269 199.814,201.893 205.425,201.025 211.660 C 199.541 222.329,209.267 230.388,220.463 227.767 C 224.357 226.855,224.347 226.863,224.347 224.852 C 224.347 223.552,224.248 223.131,223.973 223.252 C 217.031 226.309,211.873 225.866,207.875 221.868 C 198.088 212.081,210.754 196.267,222.749 203.297 C 224.414 204.272,224.390 204.288,224.287 202.316 C 224.199 200.644,224.167 200.585,223.034 200.053 C 220.785 198.997,216.060 198.416,213.294 198.856 M327.506 198.968 C 319.828 200.486,319.670 211.061,327.283 213.864 C 333.633 216.201,334.225 216.524,335.032 218.085 C 337.390 222.644,331.295 227.254,326.734 224.362 C 325.328 223.470,324.122 221.676,324.122 220.475 C 324.122 220.140,324.050 219.866,323.961 219.866 C 323.800 219.866,321.378 221.051,321.179 221.227 C 321.122 221.279,321.294 221.982,321.563 222.791 C 323.953 229.987,335.856 230.074,338.296 222.914 C 340.058 217.744,337.885 214.272,331.373 211.852 C 325.149 209.540,323.720 207.628,325.542 204.054 C 327.282 200.641,334.152 201.189,335.061 204.813 C 335.279 205.681,335.472 205.692,336.980 204.923 C 338.399 204.199,338.432 203.897,337.266 202.286 C 335.082 199.272,331.730 198.132,327.506 198.968 M57.356 213.742 L 57.356 227.931 58.850 227.931 L 60.344 227.931 60.344 213.742 L 60.344 199.552 58.850 199.552 L 57.356 199.552 57.356 213.742 M123.973 199.959 C 123.973 200.184,125.124 203.175,126.530 206.606 C 127.936 210.038,130.370 216.072,131.939 220.015 C 133.508 223.958,134.943 227.559,135.128 228.018 C 135.354 228.576,135.648 228.822,136.022 228.764 C 136.650 228.667,136.272 229.522,142.398 214.339 C 144.784 208.424,147.059 202.816,147.453 201.876 C 148.420 199.573,148.411 199.552,146.535 199.552 C 144.495 199.552,144.970 198.650,140.557 210.904 C 136.262 222.830,136.259 222.836,135.930 222.254 C 135.791 222.007,134.671 219.050,133.443 215.682 C 132.215 212.315,130.367 207.308,129.336 204.556 L 127.463 199.552 125.718 199.552 C 124.443 199.552,123.973 199.662,123.973 199.959 M173.562 213.742 L 173.562 227.931 175.056 227.931 L 176.550 227.931 176.550 213.742 L 176.550 199.552 175.056 199.552 L 173.562 199.552 173.562 213.742 M242.772 199.747 C 242.661 199.859,242.569 200.529,242.569 201.236 L 242.569 202.522 246.677 202.605 L 250.784 202.689 250.862 215.310 L 250.940 227.931 252.580 227.931 L 254.220 227.931 254.220 215.235 L 254.220 202.539 258.418 202.539 L 262.617 202.539 262.526 201.120 L 262.435 199.701 252.705 199.623 C 247.354 199.579,242.884 199.635,242.772 199.747 M280.334 199.956 C 279.754 201.466,280.384 220.675,281.070 222.405 C 284.373 230.734,299.125 230.564,302.269 222.160 C 302.883 220.520,302.913 219.958,302.913 209.996 L 302.913 199.552 301.270 199.552 L 299.627 199.552 299.620 209.634 C 299.613 220.606,299.534 221.170,297.741 223.113 C 294.541 226.578,287.301 226.301,284.968 222.623 C 283.651 220.546,283.495 219.101,283.495 208.947 L 283.495 199.552 281.992 199.552 C 281.005 199.552,280.436 199.690,280.334 199.956 " stroke="none" fill="#f6f4f0" fill-rule="evenodd"></path><path id="path3" d="M38.835 54.317 C 38.835 54.453,39.205 54.889,39.656 55.288 L 40.478 56.012 39.731 55.153 L 38.984 54.295 39.731 54.501 C 40.301 54.658,40.372 54.633,40.030 54.393 C 39.492 54.016,38.835 53.974,38.835 54.317 M340.384 73.562 L 339.507 74.533 340.478 73.656 C 341.383 72.838,341.586 72.591,341.355 72.591 C 341.304 72.591,340.867 73.028,340.384 73.562 M196.507 79.619 C 195.736 80.354,195.194 80.956,195.301 80.956 C 195.409 80.956,196.076 80.388,196.783 79.693 C 197.977 78.521,198.118 78.460,198.736 78.845 C 199.346 79.224,199.367 79.217,198.993 78.763 C 198.386 78.030,198.052 78.145,196.507 79.619 M200.473 80.881 C 201.186 81.662,201.906 82.355,202.073 82.422 C 202.239 82.489,201.809 81.952,201.116 81.227 C 200.424 80.503,199.856 79.810,199.854 79.686 C 199.852 79.563,199.699 79.462,199.514 79.462 C 199.329 79.462,199.760 80.101,200.473 80.881 M294.249 79.910 C 293.839 80.145,293.637 80.337,293.801 80.337 C 293.966 80.337,294.436 80.145,294.847 79.910 C 295.258 79.676,295.459 79.483,295.295 79.483 C 295.131 79.483,294.660 79.676,294.249 79.910 M191.779 84.167 L 188.947 87.080 191.860 84.248 C 193.462 82.690,194.772 81.380,194.772 81.335 C 194.772 81.119,194.409 81.462,191.779 84.167 M204.443 85.229 C 205.737 86.658,206.860 87.827,206.939 87.827 C 207.134 87.827,202.857 83.093,202.429 82.834 C 202.243 82.722,203.149 83.800,204.443 85.229 M186.875 88.702 C 186.349 89.283,186.453 90.515,187.028 90.515 C 187.183 90.515,187.146 90.254,186.946 89.935 C 186.647 89.455,186.680 89.247,187.139 88.740 C 187.445 88.402,187.628 88.125,187.546 88.125 C 187.464 88.125,187.162 88.385,186.875 88.702 M208.230 89.485 C 208.961 90.316,209.620 90.949,209.694 90.894 C 209.769 90.838,209.170 90.159,208.365 89.385 L 206.901 87.976 208.230 89.485 M188.350 92.009 C 188.991 92.666,189.584 93.204,189.666 93.204 C 189.748 93.204,189.290 92.666,188.648 92.009 C 188.006 91.352,187.414 90.814,187.332 90.814 C 187.250 90.814,187.708 91.352,188.350 92.009 M204.751 95.597 C 203.092 97.238,201.818 98.581,201.919 98.581 C 202.020 98.581,203.442 97.237,205.078 95.594 C 206.715 93.951,207.990 92.608,207.911 92.610 C 207.832 92.612,206.410 93.957,204.751 95.597 M191.038 94.996 C 191.680 95.653,192.272 96.191,192.354 96.191 C 192.436 96.191,191.979 95.653,191.337 94.996 C 190.695 94.339,190.103 93.801,190.021 93.801 C 189.938 93.801,190.396 94.339,191.038 94.996 M192.980 97.181 C 192.980 97.232,193.417 97.669,193.951 98.152 L 194.922 99.029 194.044 98.058 C 193.226 97.153,192.980 96.950,192.980 97.181 M199.090 101.046 L 197.909 102.315 199.178 101.134 C 200.359 100.036,200.585 99.776,200.359 99.776 C 200.311 99.776,199.739 100.347,199.090 101.046 M196.565 101.120 C 197.122 101.695,197.645 102.166,197.727 102.166 C 197.810 102.166,197.421 101.695,196.863 101.120 C 196.306 100.545,195.783 100.075,195.701 100.075 C 195.618 100.075,196.007 100.545,196.565 101.120 M312.901 106.124 L 312.024 107.095 312.995 106.217 C 313.529 105.735,313.966 105.298,313.966 105.247 C 313.966 105.016,313.719 105.219,312.901 106.124 M192.327 105.676 C 195.501 105.724,200.609 105.724,203.679 105.675 C 206.749 105.627,204.152 105.587,197.909 105.587 C 191.665 105.587,189.154 105.627,192.327 105.676 M210.082 105.640 C 210.523 105.770,210.605 106.164,210.605 108.150 L 210.605 110.506 208.290 110.611 L 205.975 110.716 208.364 110.698 L 210.754 110.680 210.754 108.144 C 210.754 105.829,210.703 105.604,210.157 105.548 C 209.693 105.500,209.676 105.520,210.082 105.640 M117.999 110.232 C 117.383 110.429,117.357 110.475,117.849 110.496 C 118.178 110.510,118.648 110.391,118.895 110.232 C 119.418 109.893,119.055 109.893,117.999 110.232 M119.492 110.530 C 119.163 110.743,119.362 110.815,120.239 110.803 C 121.178 110.791,121.306 110.732,120.836 110.530 C 120.050 110.192,120.015 110.192,119.492 110.530 M274.832 110.530 C 274.170 110.742,274.214 110.773,275.223 110.799 C 275.912 110.817,276.288 110.711,276.176 110.530 C 275.969 110.194,275.881 110.194,274.832 110.530 M186.109 110.714 C 187.892 110.938,189.925 110.960,189.797 110.754 C 189.721 110.631,188.692 110.550,187.510 110.575 C 186.329 110.600,185.698 110.662,186.109 110.714 M193.423 143.839 C 193.423 162.076,193.459 169.493,193.503 160.321 C 193.546 151.148,193.546 136.227,193.503 127.162 C 193.459 118.096,193.423 125.601,193.423 143.839 M197.904 143.391 C 197.904 161.382,197.940 168.742,197.984 159.746 C 198.027 150.751,198.027 136.031,197.984 127.035 C 197.940 118.040,197.904 125.400,197.904 143.391 M201.787 144.137 C 201.787 162.211,201.823 169.560,201.867 160.470 C 201.911 151.380,201.911 136.593,201.867 127.610 C 201.823 118.627,201.787 126.064,201.787 144.137 M87.528 112.117 C 87.528 112.169,87.965 112.606,88.499 113.088 L 89.470 113.966 88.592 112.995 C 87.774 112.090,87.528 111.887,87.528 112.117 M205.968 142.345 C 205.968 155.982,206.004 161.605,206.049 154.839 C 206.094 148.074,206.094 136.917,206.049 130.045 C 206.004 123.173,205.968 128.708,205.968 142.345 M298.264 123.450 L 297.386 124.421 298.357 123.544 C 298.891 123.061,299.328 122.624,299.328 122.573 C 299.328 122.342,299.081 122.545,298.264 123.450 M294.977 127.334 L 294.100 128.305 295.071 127.427 C 295.605 126.945,296.042 126.508,296.042 126.456 C 296.042 126.226,295.795 126.429,294.977 127.334 M153.473 127.774 C 154.007 127.840,154.881 127.840,155.414 127.774 C 155.948 127.708,155.512 127.653,154.444 127.653 C 153.376 127.653,152.939 127.708,153.473 127.774 M240.105 127.774 C 240.639 127.840,241.512 127.840,242.046 127.774 C 242.580 127.708,242.143 127.653,241.075 127.653 C 240.007 127.653,239.571 127.708,240.105 127.774 M170.575 133.981 C 171.132 134.556,171.656 135.026,171.738 135.026 C 171.820 135.026,171.431 134.556,170.874 133.981 C 170.316 133.406,169.793 132.935,169.711 132.935 C 169.629 132.935,170.018 133.406,170.575 133.981 M136.661 135.400 L 134.578 137.565 136.744 135.482 C 138.755 133.547,139.046 133.234,138.827 133.234 C 138.781 133.234,137.807 134.208,136.661 135.400 M223.440 135.250 L 221.807 136.968 223.525 135.335 C 224.470 134.437,225.243 133.664,225.243 133.617 C 225.243 133.396,224.957 133.654,223.440 135.250 M258.688 135.101 C 259.421 135.881,260.059 136.520,260.107 136.520 C 260.331 136.520,260.094 136.252,258.775 135.014 L 257.356 133.682 258.688 135.101 M286.912 136.893 L 286.034 137.864 287.005 136.987 C 287.539 136.504,287.976 136.067,287.976 136.016 C 287.976 135.785,287.730 135.988,286.912 136.893 M261.078 137.939 C 261.633 138.637,262.140 139.208,262.206 139.208 C 262.417 139.208,261.137 137.527,260.593 137.091 C 260.305 136.859,260.523 137.240,261.078 137.939 M262.546 139.955 C 262.707 140.284,263.058 140.822,263.325 141.150 L 263.812 141.748 263.519 141.150 C 263.357 140.822,263.006 140.284,262.739 139.955 L 262.252 139.358 262.546 139.955 M218.820 141.299 C 218.565 141.792,218.424 142.196,218.506 142.196 C 218.588 142.196,218.864 141.792,219.119 141.299 C 219.374 140.807,219.515 140.403,219.433 140.403 C 219.351 140.403,219.075 140.807,218.820 141.299 M264.398 143.241 C 264.398 143.406,264.590 143.876,264.824 144.287 C 265.059 144.698,265.251 144.899,265.251 144.735 C 265.251 144.571,265.059 144.100,264.824 143.689 C 264.590 143.279,264.398 143.077,264.398 143.241 M128.523 152.353 C 128.523 152.928,128.585 153.163,128.660 152.875 C 128.735 152.588,128.735 152.117,128.660 151.830 C 128.585 151.542,128.523 151.777,128.523 152.353 M180.541 156.236 C 180.541 157.797,180.591 158.435,180.653 157.655 C 180.714 156.875,180.714 155.597,180.653 154.817 C 180.591 154.037,180.541 154.675,180.541 156.236 M128.256 156.236 C 128.256 157.468,128.309 157.972,128.373 157.356 C 128.437 156.740,128.437 155.732,128.373 155.116 C 128.309 154.500,128.256 155.004,128.256 156.236 M127.535 159.298 C 128.304 160.170,128.753 160.344,128.753 159.771 C 128.753 159.579,128.662 159.513,128.551 159.624 C 128.440 159.735,128.003 159.523,127.580 159.151 L 126.811 158.476 127.535 159.298 M267.106 159.494 C 267.066 160.493,267.076 160.501,267.662 159.970 C 268.340 159.357,268.485 158.963,267.835 159.503 C 267.491 159.788,267.385 159.724,267.278 159.166 C 267.183 158.670,267.135 158.762,267.106 159.494 M179.409 164.174 C 179.299 164.611,179.267 165.027,179.337 165.098 C 179.408 165.168,179.555 164.868,179.665 164.430 C 179.775 163.992,179.807 163.576,179.737 163.506 C 179.666 163.435,179.519 163.736,179.409 164.174 M217.177 167.880 C 217.177 168.057,214.966 168.207,211.576 168.260 L 205.975 168.349 211.725 168.416 C 216.668 168.474,217.476 168.421,217.476 168.036 C 217.476 167.789,217.409 167.588,217.326 167.588 C 217.244 167.588,217.177 167.719,217.177 167.880 M178.303 168.267 C 178.431 168.394,181.079 168.461,184.189 168.415 L 189.843 168.333 183.958 168.185 C 180.720 168.103,178.176 168.140,178.303 168.267 M186.034 178.561 C 186.733 178.624,187.875 178.624,188.574 178.561 C 189.272 178.498,188.701 178.446,187.304 178.446 C 185.907 178.446,185.336 178.498,186.034 178.561 M207.825 178.556 L 209.974 178.666 210.095 179.851 L 210.215 181.035 210.186 179.763 L 210.157 178.491 207.916 178.469 L 205.676 178.446 207.825 178.556 M85.504 213.201 C 85.467 221.283,85.538 227.958,85.661 228.035 C 85.865 228.161,85.861 217.133,85.653 203.734 C 85.608 200.859,85.541 205.119,85.504 213.201 M110.668 213.891 C 110.668 221.860,110.707 225.119,110.754 221.135 C 110.801 217.151,110.801 210.631,110.754 206.647 C 110.707 202.662,110.668 205.922,110.668 213.891 M242.305 200.953 C 242.286 201.806,242.374 202.568,242.500 202.646 C 242.626 202.724,242.686 202.228,242.633 201.543 C 242.478 199.533,242.342 199.288,242.305 200.953 M262.579 201.106 C 262.500 202.043,262.544 202.701,262.677 202.567 C 262.810 202.433,262.875 201.667,262.821 200.863 L 262.724 199.403 262.579 201.106 M280.045 209.709 C 280.045 215.377,280.085 217.696,280.134 214.862 C 280.183 212.028,280.183 207.390,280.134 204.556 C 280.085 201.721,280.045 204.040,280.045 209.709 M299.461 208.813 C 299.461 213.988,299.502 216.105,299.551 213.518 C 299.601 210.930,299.601 206.695,299.551 204.108 C 299.502 201.520,299.461 203.637,299.461 208.813 M89.918 202.390 C 90.475 202.965,90.998 203.435,91.081 203.435 C 91.163 203.435,90.774 202.965,90.217 202.390 C 89.659 201.815,89.136 201.344,89.054 201.344 C 88.972 201.344,89.360 201.815,89.918 202.390 M327.242 202.406 C 326.671 202.863,326.671 202.867,327.259 202.596 C 327.588 202.445,328.058 202.246,328.305 202.155 C 328.692 202.012,328.689 201.986,328.287 201.965 C 328.031 201.952,327.560 202.151,327.242 202.406 M321.620 203.895 C 321.518 204.162,321.448 204.672,321.464 205.028 C 321.484 205.438,321.585 205.292,321.740 204.632 C 322.001 203.522,321.930 203.087,321.620 203.895 M91.710 204.425 C 91.710 204.476,92.147 204.913,92.681 205.396 L 93.652 206.273 92.775 205.302 C 91.957 204.397,91.710 204.194,91.710 204.425 M207.748 205.302 L 206.871 206.273 207.842 205.396 C 208.376 204.913,208.813 204.476,208.813 204.425 C 208.813 204.194,208.566 204.397,207.748 205.302 M89.154 217.028 C 89.154 222.121,89.195 224.247,89.245 221.751 C 89.295 219.256,89.295 215.089,89.245 212.491 C 89.195 209.893,89.155 211.934,89.154 217.028 M95.892 208.962 C 96.450 209.537,96.973 210.007,97.055 210.007 C 97.137 210.007,96.749 209.537,96.191 208.962 C 95.634 208.387,95.111 207.916,95.028 207.916 C 94.946 207.916,95.335 208.387,95.892 208.962 M94.685 212.173 C 95.923 213.492,96.191 213.729,96.191 213.505 C 96.191 213.457,95.553 212.819,94.772 212.086 L 93.353 210.754 94.685 212.173 M303.027 217.326 C 303.027 219.298,303.076 220.066,303.134 219.032 C 303.193 217.999,303.192 216.386,303.133 215.448 C 303.074 214.509,303.026 215.355,303.027 217.326 M101.855 215.459 C 103.093 216.778,103.361 217.015,103.361 216.791 C 103.361 216.743,102.722 216.105,101.942 215.372 L 100.523 214.040 101.855 215.459 M98.270 216.057 C 99.508 217.376,99.776 217.613,99.776 217.389 C 99.776 217.341,99.137 216.702,98.357 215.970 L 96.938 214.638 98.270 216.057 M104.854 218.820 C 105.412 219.395,105.935 219.866,106.017 219.866 C 106.099 219.866,105.710 219.395,105.153 218.820 C 104.596 218.245,104.072 217.774,103.990 217.774 C 103.908 217.774,104.297 218.245,104.854 218.820 M101.867 220.015 C 102.424 220.590,102.948 221.060,103.030 221.060 C 103.112 221.060,102.723 220.590,102.166 220.015 C 101.608 219.440,101.085 218.969,101.003 218.969 C 100.921 218.969,101.310 219.440,101.867 220.015 M321.147 220.897 C 320.949 221.135,320.850 221.572,320.926 221.868 C 321.038 222.298,321.073 222.274,321.101 221.747 C 321.120 221.386,321.370 220.953,321.658 220.786 C 321.945 220.618,322.029 220.477,321.844 220.472 C 321.659 220.467,321.345 220.658,321.147 220.897 M105.302 223.749 C 106.112 224.571,106.841 225.243,106.923 225.243 C 107.005 225.243,106.410 224.571,105.601 223.749 C 104.792 222.928,104.063 222.255,103.981 222.255 C 103.898 222.255,104.493 222.928,105.302 223.749 M284.989 222.648 C 284.989 222.699,285.426 223.136,285.960 223.618 L 286.931 224.496 286.053 223.525 C 285.235 222.620,284.989 222.417,284.989 222.648 M321.135 222.666 C 321.135 223.032,322.309 225.194,322.607 225.379 C 322.765 225.476,322.542 224.914,322.113 224.130 C 321.226 222.508,321.135 222.372,321.135 222.666 M88.986 227.269 C 88.888 227.862,88.932 228.141,89.097 227.975 C 89.248 227.825,89.321 227.384,89.260 226.995 C 89.166 226.397,89.124 226.439,88.986 227.269 M254.289 227.334 C 254.289 227.909,254.350 228.144,254.425 227.857 C 254.501 227.569,254.501 227.099,254.425 226.811 C 254.350 226.524,254.289 226.759,254.289 227.334 M108.140 226.830 C 108.140 226.881,108.577 227.318,109.111 227.801 L 110.082 228.678 109.205 227.707 C 108.387 226.802,108.140 226.599,108.140 226.830 " stroke="none" fill="#936953" fill-rule="evenodd"></path><path id="path4" d="M39.418 54.799 C 39.734 55.180,40.627 55.146,40.627 54.753 C 40.627 54.671,40.426 54.681,40.179 54.776 C 39.933 54.870,39.731 54.817,39.731 54.658 C 39.731 54.499,39.580 54.369,39.396 54.369 C 39.158 54.369,39.164 54.494,39.418 54.799 M355.892 54.572 C 356.003 54.684,355.723 55.188,355.269 55.693 L 354.444 56.609 355.414 55.732 C 356.426 54.818,356.631 54.369,356.037 54.369 C 355.845 54.369,355.780 54.460,355.892 54.572 M51.382 69.100 C 51.382 69.152,51.819 69.589,52.353 70.071 L 53.323 70.948 52.446 69.978 C 51.628 69.073,51.382 68.869,51.382 69.100 M196.700 79.836 L 195.519 81.105 196.789 79.924 C 197.487 79.275,198.058 78.704,198.058 78.655 C 198.058 78.429,197.798 78.655,196.700 79.836 M296.938 79.014 C 296.527 79.249,296.326 79.441,296.490 79.441 C 296.654 79.441,297.125 79.249,297.535 79.014 C 297.946 78.779,298.148 78.587,297.984 78.587 C 297.819 78.587,297.349 78.779,296.938 79.014 M192.376 83.869 L 189.544 86.781 192.457 83.949 C 194.059 82.392,195.370 81.081,195.370 81.037 C 195.370 80.820,195.007 81.163,192.376 83.869 M201.942 82.636 C 201.942 82.794,202.580 83.522,203.361 84.254 L 204.780 85.586 203.435 84.098 C 202.696 83.280,202.058 82.552,202.016 82.480 C 201.975 82.409,201.942 82.479,201.942 82.636 M329.331 86.408 L 328.454 87.379 329.425 86.501 C 330.330 85.683,330.533 85.437,330.302 85.437 C 330.251 85.437,329.814 85.874,329.331 86.408 M205.676 86.931 C 206.318 87.588,206.910 88.125,206.992 88.125 C 207.074 88.125,206.616 87.588,205.975 86.931 C 205.333 86.273,204.741 85.736,204.658 85.736 C 204.576 85.736,205.034 86.273,205.676 86.931 M207.618 89.115 C 207.618 89.167,208.055 89.603,208.588 90.086 L 209.559 90.963 208.682 89.993 C 207.864 89.088,207.618 88.884,207.618 89.115 M188.350 91.710 C 188.991 92.367,189.584 92.905,189.666 92.905 C 189.748 92.905,189.290 92.367,188.648 91.710 C 188.006 91.053,187.414 90.515,187.332 90.515 C 187.250 90.515,187.708 91.053,188.350 91.710 M190.590 94.249 C 191.147 94.824,191.671 95.295,191.753 95.295 C 191.835 95.295,191.446 94.824,190.889 94.249 C 190.331 93.674,189.808 93.204,189.726 93.204 C 189.644 93.204,190.033 93.674,190.590 94.249 M204.033 96.042 C 202.809 97.274,201.875 98.282,201.957 98.282 C 202.039 98.282,203.108 97.274,204.332 96.042 C 205.556 94.810,206.490 93.801,206.408 93.801 C 206.326 93.801,205.257 94.810,204.033 96.042 M193.716 97.685 C 194.521 98.588,195.241 99.395,195.315 99.477 C 195.390 99.559,195.309 99.358,195.135 99.029 C 194.962 98.701,194.242 97.894,193.536 97.237 C 192.271 96.059,192.274 96.065,193.716 97.685 M196.695 100.892 C 197.799 102.079,198.954 102.139,198.954 101.010 C 198.954 100.918,198.724 101.073,198.443 101.354 C 197.961 101.836,197.864 101.802,196.726 100.746 L 195.519 99.627 196.695 100.892 M312.709 105.355 C 313.022 105.481,313.023 105.603,312.714 106.004 C 312.449 106.346,312.537 106.323,313.000 105.928 C 313.831 105.219,313.830 105.147,312.995 105.177 C 312.625 105.190,312.496 105.270,312.709 105.355 M185.616 108.140 C 185.616 109.537,185.667 110.108,185.730 109.410 C 185.793 108.712,185.793 107.569,185.730 106.871 C 185.667 106.173,185.616 106.744,185.616 108.140 M83.943 107.636 C 83.943 107.688,84.380 108.125,84.914 108.607 L 85.885 109.485 85.008 108.514 C 84.190 107.609,83.943 107.406,83.943 107.636 M120.687 110.810 C 120.040 110.999,120.113 111.046,121.232 111.163 C 121.943 111.237,122.589 111.192,122.669 111.063 C 122.748 110.934,122.682 110.829,122.522 110.829 C 122.361 110.829,122.051 110.775,121.832 110.710 C 121.613 110.644,121.098 110.689,120.687 110.810 M193.428 144.137 C 193.428 162.590,193.529 177.625,193.652 177.549 C 193.945 177.368,193.945 110.907,193.652 110.726 C 193.529 110.650,193.428 125.685,193.428 144.137 M197.660 110.729 C 197.383 111.006,197.408 177.378,197.685 177.549 C 197.808 177.625,197.909 162.577,197.909 144.109 C 197.909 125.641,197.898 110.530,197.884 110.530 C 197.870 110.530,197.769 110.620,197.660 110.729 M201.792 144.109 C 201.792 162.577,201.893 177.625,202.016 177.549 C 202.140 177.473,202.240 162.363,202.240 143.970 C 202.240 125.578,202.140 110.530,202.016 110.530 C 201.893 110.530,201.792 125.641,201.792 144.109 M205.671 144.586 C 205.671 163.398,205.707 171.094,205.751 161.688 C 205.794 152.282,205.794 136.889,205.751 127.483 C 205.707 118.077,205.671 125.773,205.671 144.586 M273.189 110.836 C 272.751 111.019,272.984 111.091,274.060 111.107 C 274.868 111.118,275.473 111.079,275.405 111.020 C 275.065 110.728,273.717 110.616,273.189 110.836 M189.538 142.345 C 189.538 156.639,189.574 162.531,189.619 155.437 C 189.664 148.343,189.664 136.648,189.619 129.447 C 189.574 122.247,189.538 128.051,189.538 142.345 M294.977 127.035 L 294.100 128.006 295.071 127.129 C 295.605 126.646,296.042 126.209,296.042 126.158 C 296.042 125.927,295.795 126.130,294.977 127.035 M243.241 127.764 C 243.529 127.839,243.999 127.839,244.287 127.764 C 244.574 127.689,244.339 127.627,243.764 127.627 C 243.189 127.627,242.954 127.689,243.241 127.764 M172.069 135.176 C 173.127 136.243,174.060 137.117,174.143 137.117 C 174.225 137.117,173.426 136.243,172.367 135.176 C 171.309 134.108,170.376 133.234,170.294 133.234 C 170.211 133.234,171.010 134.108,172.069 135.176 M136.361 135.400 L 134.578 137.267 136.445 135.484 C 138.179 133.827,138.449 133.532,138.228 133.532 C 138.182 133.532,137.342 134.373,136.361 135.400 M223.136 135.250 L 222.106 136.370 223.226 135.341 C 224.269 134.383,224.484 134.130,224.256 134.130 C 224.206 134.130,223.702 134.634,223.136 135.250 M214.877 156.236 C 214.877 157.140,214.933 157.509,215.001 157.058 C 215.070 156.606,215.070 155.866,215.001 155.414 C 214.933 154.963,214.877 155.332,214.877 156.236 M185.018 181.031 C 185.018 182.427,185.070 182.999,185.133 182.300 C 185.196 181.602,185.196 180.459,185.133 179.761 C 185.070 179.063,185.018 179.634,185.018 181.031 M108.215 199.467 C 108.667 199.536,109.406 199.536,109.858 199.467 C 110.310 199.399,109.940 199.343,109.037 199.343 C 108.133 199.343,107.763 199.399,108.215 199.467 M57.202 213.742 L 57.207 228.081 58.777 228.107 L 60.347 228.133 58.854 228.016 L 57.362 227.900 57.280 213.651 L 57.198 199.403 57.202 213.742 M87.229 199.645 C 87.229 199.697,87.666 200.134,88.200 200.616 L 89.171 201.494 88.294 200.523 C 87.476 199.618,87.229 199.415,87.229 199.645 M303.042 206.721 C 303.042 210.747,303.084 212.394,303.136 210.381 C 303.187 208.368,303.187 205.075,303.136 203.062 C 303.084 201.049,303.042 202.696,303.042 206.721 M283.629 209.410 C 283.629 214.750,283.669 216.934,283.719 214.264 C 283.768 211.594,283.768 207.226,283.719 204.556 C 283.669 201.886,283.629 204.070,283.629 209.410 M176.621 214.099 L 176.550 227.900 174.981 228.010 L 173.413 228.120 174.991 228.175 C 177.030 228.246,176.867 229.553,176.774 213.891 L 176.693 200.299 176.621 214.099 M244.586 202.760 C 245.612 202.819,247.293 202.819,248.320 202.760 C 249.347 202.702,248.506 202.654,246.453 202.654 C 244.399 202.654,243.559 202.702,244.586 202.760 M256.697 202.761 C 257.812 202.819,259.560 202.818,260.580 202.760 C 261.600 202.702,260.687 202.655,258.551 202.655 C 256.415 202.656,255.581 202.703,256.697 202.761 M254.356 214.638 C 254.356 221.210,254.395 223.856,254.443 220.518 C 254.491 217.180,254.491 211.803,254.443 208.569 C 254.395 205.335,254.356 208.066,254.356 214.638 M204.407 213.443 C 204.410 214.100,204.471 214.334,204.543 213.962 C 204.614 213.591,204.612 213.053,204.537 212.767 C 204.462 212.482,204.404 212.786,204.407 213.443 M338.846 220.015 C 338.848 220.836,338.906 221.137,338.975 220.683 C 339.043 220.229,339.041 219.557,338.971 219.189 C 338.900 218.822,338.843 219.193,338.846 220.015 M86.711 228.146 C 87.165 228.214,87.837 228.212,88.204 228.142 C 88.572 228.071,88.200 228.014,87.379 228.017 C 86.557 228.019,86.257 228.077,86.711 228.146 M251.760 228.148 C 252.297 228.214,253.104 228.213,253.553 228.145 C 254.002 228.077,253.562 228.022,252.577 228.024 C 251.591 228.026,251.223 228.081,251.760 228.148 M215.017 228.447 C 215.553 228.513,216.360 228.512,216.809 228.443 C 217.258 228.375,216.819 228.321,215.833 228.323 C 214.847 228.324,214.480 228.380,215.017 228.447 M328.981 228.444 C 329.435 228.513,330.107 228.511,330.475 228.440 C 330.842 228.369,330.471 228.313,329.649 228.315 C 328.827 228.318,328.527 228.376,328.981 228.444 M290.441 228.743 C 290.892 228.811,291.632 228.811,292.084 228.743 C 292.535 228.674,292.166 228.618,291.262 228.618 C 290.358 228.618,289.989 228.674,290.441 228.743 " stroke="none" fill="#b58456" fill-rule="evenodd"></path></g></svg>
