<svg id="svg" version="1.1" width="30px" height="30px" viewBox="0 0 400 298.6831913245546" xmlns="http://www.w3.org/2000/svg" xmlns:xlink="http://www.w3.org/1999/xlink" ><g id="svgg"><path id="path0" d="M0.000 149.365 L 0.000 298.730 200.000 298.730 L 400.000 298.730 400.000 149.365 L 400.000 0.000 200.000 0.000 L 0.000 0.000 0.000 149.365 M58.155 62.106 C 67.985 66.197,86.042 73.711,98.282 78.804 C 110.523 83.898,131.426 92.597,144.735 98.137 C 188.702 116.437,189.222 116.647,189.729 116.334 C 190.158 116.068,190.052 111.250,189.609 110.882 C 189.398 110.707,188.423 110.523,187.443 110.472 L 185.661 110.381 185.661 108.140 L 185.661 105.900 198.133 105.822 L 210.605 105.744 210.605 108.125 L 210.605 110.505 208.290 110.592 L 205.975 110.680 205.889 113.742 C 205.843 115.426,205.862 116.804,205.932 116.804 C 206.003 116.804,209.738 115.274,214.232 113.404 C 218.727 111.534,234.369 105.027,248.992 98.944 C 263.615 92.861,291.240 81.367,310.381 73.403 C 329.522 65.438,347.486 57.964,350.301 56.794 C 355.387 54.681,356.228 54.410,356.037 54.949 C 355.930 55.251,342.979 70.671,341.001 72.851 C 339.551 74.449,341.047 73.802,319.047 82.353 C 309.109 86.216,300.640 89.560,300.227 89.785 C 298.659 90.638,300.917 90.143,316.505 86.214 C 325.213 84.019,332.440 82.283,332.565 82.356 C 332.874 82.537,332.594 82.905,328.259 88.008 C 326.180 90.455,323.333 93.813,321.931 95.471 L 319.383 98.485 316.301 99.310 C 298.260 104.136,277.012 110.029,276.774 110.273 C 276.412 110.644,275.158 110.812,296.187 107.672 C 305.386 106.299,313.010 105.273,313.130 105.393 C 313.250 105.513,312.840 106.214,312.219 106.951 C 302.509 118.458,277.042 148.604,273.107 153.249 C 270.254 156.617,267.812 159.412,267.680 159.459 C 267.549 159.507,267.375 157.692,267.294 155.426 C 266.525 133.806,245.785 120.939,228.466 131.338 C 217.470 137.941,212.241 153.037,216.581 165.652 C 217.519 168.377,217.903 168.185,211.501 168.185 L 205.825 168.185 205.825 173.232 C 205.825 178.949,205.679 178.641,208.389 178.641 L 210.007 178.641 210.007 181.034 L 210.007 183.427 197.535 183.349 L 185.063 183.271 185.063 181.031 L 185.063 178.790 187.203 178.703 C 190.078 178.586,190.023 178.699,189.926 173.074 L 189.843 168.335 184.466 168.258 C 177.759 168.162,178.215 168.364,179.066 165.863 C 182.537 155.658,179.975 143.556,172.714 135.859 C 156.222 118.376,128.595 130.931,128.364 156.012 C 128.347 157.942,128.237 159.522,128.120 159.522 C 127.707 159.522,82.649 106.199,82.495 105.529 C 82.412 105.167,82.593 105.112,83.391 105.257 C 85.049 105.557,116.550 110.208,117.999 110.366 C 121.328 110.729,118.961 110.038,88.872 101.863 C 82.037 100.005,76.380 98.314,76.071 98.036 C 74.967 97.040,63.179 82.984,63.079 82.544 C 63.008 82.229,63.142 82.142,63.527 82.255 C 66.225 83.050,95.210 90.214,95.700 90.207 C 96.775 90.192,96.198 89.954,76.578 82.333 C 66.238 78.317,57.277 74.792,56.666 74.500 C 55.753 74.065,42.375 58.771,39.789 55.206 C 39.061 54.202,40.125 54.602,58.155 62.106 M203.883 84.571 C 206.841 87.872,209.261 90.754,209.261 90.976 C 209.261 91.484,198.415 101.867,197.885 101.867 C 197.306 101.867,186.648 89.983,186.760 89.462 C 186.876 88.922,197.741 78.566,198.190 78.568 C 198.364 78.568,200.926 81.270,203.883 84.571 M96.586 209.562 C 101.987 215.475,106.593 220.357,106.821 220.410 C 107.169 220.490,107.249 218.778,107.315 209.954 L 107.394 199.403 108.727 199.308 C 109.731 199.236,110.155 199.342,110.445 199.738 C 111.051 200.567,111.001 227.715,110.393 228.220 C 109.888 228.639,109.891 228.642,97.719 215.385 C 93.420 210.702,89.706 206.828,89.466 206.775 C 89.090 206.693,89.018 208.179,88.951 217.380 L 88.872 228.081 87.379 228.081 L 85.885 228.081 85.807 213.346 C 85.735 199.499,85.761 198.617,86.248 198.711 C 86.533 198.765,91.185 203.649,96.586 209.562 M220.702 199.108 C 224.023 199.891,224.347 200.170,224.347 202.248 C 224.347 204.335,224.411 204.314,221.766 203.062 C 215.658 200.169,207.758 203.067,205.531 209.018 C 201.617 219.479,212.229 228.811,222.273 223.740 C 224.296 222.719,224.347 222.750,224.347 225.009 C 224.347 227.068,224.134 227.221,220.102 228.053 C 203.796 231.420,193.995 213.597,205.940 202.300 C 209.425 199.003,215.075 197.782,220.702 199.108 M334.201 199.350 C 335.698 200.142,337.244 201.622,337.882 202.872 C 338.625 204.329,338.657 204.220,337.279 204.923 C 335.661 205.748,335.385 205.696,334.553 204.406 C 331.411 199.532,323.445 202.514,325.466 207.808 C 326.103 209.474,326.832 209.962,330.913 211.451 C 336.257 213.401,337.609 214.459,338.611 217.476 C 342.021 227.742,326.060 233.164,321.534 223.277 C 320.703 221.462,320.802 221.031,322.204 220.363 C 323.734 219.633,324.063 219.731,324.411 221.021 C 326.036 227.056,335.176 226.161,335.176 219.968 C 335.176 217.458,333.847 216.331,328.896 214.639 C 322.031 212.293,319.439 207.212,322.597 202.290 C 324.739 198.952,330.628 197.460,334.201 199.350 M60.493 213.891 L 60.493 228.081 58.850 228.081 L 57.207 228.081 57.129 214.190 C 57.039 198.192,56.879 199.493,58.921 199.611 L 60.493 199.701 60.493 213.891 M127.756 199.925 C 127.884 200.131,129.743 205.061,131.886 210.881 C 134.030 216.701,135.928 221.511,136.104 221.569 C 136.285 221.630,138.164 216.907,140.432 210.689 L 144.440 199.701 146.199 199.610 C 147.167 199.560,148.064 199.628,148.193 199.760 C 148.432 200.005,137.075 228.391,136.514 228.953 C 136.301 229.166,136.048 229.163,135.700 228.944 C 135.133 228.586,123.593 200.225,123.847 199.813 C 124.102 199.400,127.488 199.497,127.756 199.925 M176.699 213.891 L 176.699 228.081 175.056 228.081 L 173.413 228.081 173.335 214.190 C 173.246 198.192,173.085 199.493,175.127 199.611 L 176.699 199.701 176.699 213.891 M262.525 201.120 L 262.435 202.689 258.476 202.772 L 254.518 202.855 254.514 215.169 C 254.509 228.975,254.619 228.299,252.399 228.173 L 250.784 228.081 250.635 215.534 L 250.485 202.987 246.770 202.903 C 242.628 202.809,242.270 202.662,242.270 201.059 C 242.270 199.477,241.756 199.552,252.642 199.552 L 262.615 199.552 262.525 201.120 M283.799 210.007 C 283.929 218.731,284.029 220.475,284.445 221.362 C 287.011 226.832,295.459 226.850,298.667 221.393 L 299.477 220.015 299.513 210.157 C 299.533 204.735,299.567 200.124,299.588 199.910 C 299.616 199.630,300.103 199.547,301.344 199.612 L 303.062 199.701 303.062 210.313 L 303.062 220.925 302.080 222.919 C 298.012 231.179,284.023 230.743,280.821 222.255 C 280.076 220.281,279.485 203.556,280.053 200.528 L 280.242 199.523 281.943 199.612 L 283.645 199.701 283.799 210.007 " stroke="none" fill="#0113db" fill-rule="evenodd"></path><path id="path1" d="M39.789 55.206 C 42.375 58.771,55.753 74.065,56.666 74.500 C 57.277 74.792,66.238 78.317,76.578 82.333 C 96.198 89.954,96.775 90.192,95.700 90.207 C 95.210 90.214,66.225 83.050,63.527 82.255 C 63.142 82.142,63.008 82.229,63.079 82.544 C 63.179 82.984,74.967 97.040,76.071 98.036 C 76.380 98.314,82.037 100.005,88.872 101.863 C 118.961 110.038,121.328 110.729,117.999 110.366 C 116.550 110.208,85.049 105.557,83.391 105.257 C 82.593 105.112,82.412 105.167,82.495 105.529 C 82.649 106.199,127.707 159.522,128.120 159.522 C 128.237 159.522,128.347 157.942,128.364 156.012 C 128.595 130.931,156.222 118.376,172.714 135.859 C 179.975 143.556,182.537 155.658,179.066 165.863 C 178.215 168.364,177.759 168.162,184.466 168.258 L 189.843 168.335 189.926 173.074 C 190.023 178.699,190.078 178.586,187.203 178.703 L 185.063 178.790 185.063 181.031 L 185.063 183.271 197.535 183.349 L 210.007 183.427 210.007 181.034 L 210.007 178.641 208.389 178.641 C 205.679 178.641,205.825 178.949,205.825 173.232 L 205.825 168.185 211.501 168.185 C 217.903 168.185,217.519 168.377,216.581 165.652 C 212.241 153.037,217.470 137.941,228.466 131.338 C 245.785 120.939,266.525 133.806,267.294 155.426 C 267.375 157.692,267.549 159.507,267.680 159.459 C 267.812 159.412,270.254 156.617,273.107 153.249 C 277.042 148.604,302.509 118.458,312.219 106.951 C 312.840 106.214,313.250 105.513,313.130 105.393 C 313.010 105.273,305.386 106.299,296.187 107.672 C 275.158 110.812,276.412 110.644,276.774 110.273 C 277.012 110.029,298.260 104.136,316.301 99.310 L 319.383 98.485 321.931 95.471 C 323.333 93.813,326.180 90.455,328.259 88.008 C 332.594 82.905,332.874 82.537,332.565 82.356 C 332.440 82.283,325.213 84.019,316.505 86.214 C 300.917 90.143,298.659 90.638,300.227 89.785 C 300.640 89.560,309.109 86.216,319.047 82.353 C 341.047 73.802,339.551 74.449,341.001 72.851 C 342.979 70.671,355.930 55.251,356.037 54.949 C 356.228 54.410,355.387 54.681,350.301 56.794 C 347.486 57.964,329.522 65.438,310.381 73.403 C 291.240 81.367,263.615 92.861,248.992 98.944 C 234.369 105.027,218.727 111.534,214.232 113.404 C 209.738 115.274,206.003 116.804,205.932 116.804 C 205.862 116.804,205.843 115.426,205.889 113.742 L 205.975 110.680 208.290 110.592 L 210.605 110.505 210.605 108.125 L 210.605 105.744 198.133 105.822 L 185.661 105.900 185.661 108.140 L 185.661 110.381 187.443 110.472 C 188.423 110.523,189.398 110.707,189.609 110.882 C 190.052 111.250,190.158 116.068,189.729 116.334 C 189.222 116.647,188.702 116.437,144.735 98.137 C 131.426 92.597,110.523 83.898,98.282 78.804 C 86.042 73.711,67.985 66.197,58.155 62.106 C 40.125 54.602,39.061 54.202,39.789 55.206 M192.365 83.791 C 189.335 86.665,186.813 89.217,186.760 89.462 C 186.648 89.983,197.306 101.867,197.885 101.867 C 198.415 101.867,209.261 91.484,209.261 90.976 C 209.261 90.482,198.633 78.569,198.190 78.568 C 198.016 78.567,195.395 80.917,192.365 83.791 M85.807 213.346 L 85.885 228.081 87.379 228.081 L 88.872 228.081 88.951 217.380 C 89.018 208.179,89.090 206.693,89.466 206.775 C 89.706 206.828,93.420 210.702,97.719 215.385 C 109.891 228.642,109.888 228.639,110.393 228.220 C 111.001 227.715,111.051 200.567,110.445 199.738 C 110.155 199.342,109.731 199.236,108.727 199.308 L 107.394 199.403 107.315 209.954 C 107.249 218.778,107.169 220.490,106.821 220.410 C 106.593 220.357,101.987 215.475,96.586 209.562 C 91.185 203.649,86.533 198.765,86.248 198.711 C 85.761 198.617,85.735 199.499,85.807 213.346 M211.576 199.117 C 205.504 200.752,200.740 207.101,200.750 213.544 C 200.766 223.717,209.476 230.247,220.102 228.053 C 224.134 227.221,224.347 227.068,224.347 225.009 C 224.347 222.750,224.296 222.719,222.273 223.740 C 212.229 228.811,201.617 219.479,205.531 209.018 C 207.758 203.067,215.658 200.169,221.766 203.062 C 224.411 204.314,224.347 204.335,224.347 202.248 C 224.347 200.574,224.292 200.435,223.465 200.008 C 220.970 198.718,214.782 198.254,211.576 199.117 M326.702 198.947 C 323.855 199.854,321.730 202.656,321.505 205.798 C 321.191 210.190,323.317 212.732,328.896 214.639 C 333.847 216.331,335.176 217.458,335.176 219.968 C 335.176 226.161,326.036 227.056,324.411 221.021 C 324.063 219.731,323.734 219.633,322.204 220.363 C 320.802 221.031,320.703 221.462,321.534 223.277 C 326.060 233.164,342.021 227.742,338.611 217.476 C 337.609 214.459,336.257 213.401,330.913 211.451 C 326.832 209.962,326.103 209.474,325.466 207.808 C 323.445 202.514,331.411 199.532,334.553 204.406 C 335.385 205.696,335.661 205.748,337.279 204.923 C 338.657 204.220,338.625 204.329,337.882 202.872 C 336.198 199.572,330.747 197.658,326.702 198.947 M94.703 207.975 C 105.756 220.120,106.686 221.097,107.066 220.971 C 107.292 220.896,107.440 217.577,107.543 210.281 L 107.692 199.701 108.962 199.609 L 110.232 199.518 110.232 213.724 C 110.232 221.848,110.117 227.931,109.965 227.931 C 109.819 227.931,106.828 224.809,103.318 220.993 C 88.429 204.802,89.463 205.862,89.013 206.312 C 88.849 206.475,88.698 211.053,88.652 217.188 L 88.574 227.782 87.379 227.782 L 86.184 227.782 86.106 213.368 C 86.064 205.441,86.133 198.954,86.261 198.954 C 86.388 198.954,90.187 203.014,94.703 207.975 M220.403 199.407 C 223.602 200.161,224.048 200.509,224.048 202.248 C 224.048 203.843,223.926 203.962,223.006 203.267 C 219.119 200.329,210.767 201.496,207.283 205.464 C 198.601 215.352,210.225 230.012,222.136 224.194 C 224.131 223.220,224.093 223.203,223.989 225.019 L 223.898 226.587 221.896 227.256 C 206.959 232.249,195.225 217.316,204.201 204.738 C 207.697 199.839,213.765 197.842,220.403 199.407 M333.060 199.246 C 336.374 200.197,338.913 203.774,336.983 204.772 C 335.762 205.403,335.607 205.363,334.909 204.234 C 332.485 200.312,325.697 201.070,324.894 205.351 C 324.322 208.398,325.699 209.855,331.014 211.830 C 336.550 213.887,338.220 215.498,338.659 219.207 C 339.717 228.136,325.728 231.828,321.993 223.606 C 321.129 221.704,321.868 220.164,323.644 220.164 C 323.698 220.164,323.970 220.761,324.249 221.490 C 325.596 225.018,330.128 226.586,333.110 224.556 C 337.029 221.887,336.143 216.967,331.431 215.237 C 330.615 214.938,328.940 214.314,327.707 213.850 C 316.997 209.822,322.033 196.084,333.060 199.246 M57.200 199.910 C 57.118 200.124,57.086 206.550,57.129 214.190 L 57.207 228.081 58.850 228.081 L 60.493 228.081 60.493 213.891 L 60.493 199.701 58.921 199.611 C 57.837 199.548,57.303 199.641,57.200 199.910 M123.847 199.813 C 123.593 200.225,135.133 228.586,135.700 228.944 C 136.048 229.163,136.301 229.166,136.514 228.953 C 137.075 228.391,148.432 200.005,148.193 199.760 C 148.064 199.628,147.167 199.560,146.199 199.610 L 144.440 199.701 140.432 210.689 C 138.164 216.907,136.285 221.630,136.104 221.569 C 135.928 221.511,134.030 216.701,131.886 210.881 C 129.743 205.061,127.884 200.131,127.756 199.925 C 127.488 199.497,124.102 199.400,123.847 199.813 M173.406 199.910 C 173.324 200.124,173.292 206.550,173.335 214.190 L 173.413 228.081 175.056 228.081 L 176.699 228.081 176.699 213.891 L 176.699 199.701 175.127 199.611 C 174.043 199.548,173.509 199.641,173.406 199.910 M242.470 199.751 C 242.114 200.106,242.259 202.158,242.663 202.493 C 242.886 202.678,244.657 202.855,246.770 202.903 L 250.485 202.987 250.635 215.534 L 250.784 228.081 252.399 228.173 C 254.619 228.299,254.509 228.975,254.514 215.169 L 254.518 202.855 258.476 202.772 L 262.435 202.689 262.525 201.120 L 262.615 199.552 252.642 199.552 C 247.157 199.552,242.579 199.642,242.470 199.751 M280.053 200.528 C 279.485 203.556,280.076 220.281,280.821 222.255 C 284.023 230.743,298.012 231.179,302.080 222.919 L 303.062 220.925 303.062 210.313 L 303.062 199.701 301.344 199.612 C 300.103 199.547,299.616 199.630,299.588 199.910 C 299.567 200.124,299.533 204.735,299.513 210.157 L 299.477 220.015 298.667 221.393 C 295.459 226.850,287.011 226.832,284.445 221.362 C 284.029 220.475,283.929 218.731,283.799 210.007 L 283.645 199.701 281.943 199.612 L 280.242 199.523 280.053 200.528 M60.272 213.816 L 60.194 227.782 58.850 227.782 L 57.506 227.782 57.428 213.816 L 57.350 199.851 58.850 199.851 L 60.349 199.851 60.272 213.816 M131.601 211.065 C 134.702 219.492,135.839 222.258,136.175 222.193 C 136.468 222.136,137.882 218.647,140.266 212.099 C 145.215 198.511,144.548 199.851,146.363 199.851 C 148.302 199.851,148.699 198.440,142.302 214.285 C 136.825 227.852,136.185 229.241,135.672 228.665 C 135.323 228.273,124.262 200.689,124.268 200.224 C 124.270 199.972,124.794 199.851,125.873 199.851 L 127.475 199.851 131.601 211.065 M176.478 213.816 L 176.400 227.782 175.056 227.782 L 173.712 227.782 173.634 213.816 L 173.556 199.851 175.056 199.851 L 176.556 199.851 176.478 213.816 M262.228 201.120 L 262.136 202.390 258.252 202.539 L 254.369 202.689 254.220 215.235 L 254.070 227.782 252.577 227.782 L 251.083 227.782 250.934 215.235 L 250.784 202.689 246.912 202.604 C 242.809 202.515,242.582 202.433,242.574 201.021 C 242.567 199.830,242.390 199.851,252.644 199.851 L 262.320 199.851 262.228 201.120 M283.495 210.157 C 283.644 220.257,283.649 220.322,284.391 221.792 C 286.720 226.401,294.620 227.233,297.787 223.203 C 299.831 220.601,299.766 221.012,299.872 209.933 L 299.968 199.851 301.458 199.851 L 302.947 199.851 302.855 210.381 L 302.763 220.911 301.981 222.580 C 298.412 230.190,285.275 230.600,281.637 223.214 L 280.657 221.224 280.572 210.521 L 280.486 199.817 281.916 199.909 L 283.346 200.000 283.495 210.157 " stroke="none" fill="#ffffff" fill-rule="evenodd"></path><path id="path2" d="M86.106 213.368 L 86.184 227.782 87.379 227.782 L 88.574 227.782 88.652 217.188 C 88.698 211.053,88.849 206.475,89.013 206.312 C 89.463 205.862,88.429 204.802,103.318 220.993 C 106.828 224.809,109.819 227.931,109.965 227.931 C 110.117 227.931,110.232 221.848,110.232 213.724 L 110.232 199.518 108.962 199.609 L 107.692 199.701 107.543 210.281 C 107.440 217.577,107.292 220.896,107.066 220.971 C 106.686 221.097,105.756 220.120,94.703 207.975 C 90.187 203.014,86.388 198.954,86.261 198.954 C 86.133 198.954,86.064 205.441,86.106 213.368 M211.800 199.393 C 201.130 202.452,197.476 216.210,205.265 224.000 C 209.175 227.910,215.964 229.239,221.896 227.256 L 223.898 226.587 223.989 225.019 C 224.093 223.203,224.131 223.220,222.136 224.194 C 210.225 230.012,198.601 215.352,207.283 205.464 C 210.767 201.496,219.119 200.329,223.006 203.267 C 223.926 203.962,224.048 203.843,224.048 202.248 C 224.048 199.574,216.944 197.919,211.800 199.393 M326.730 199.351 C 322.714 200.600,320.577 205.698,322.458 209.543 C 323.755 212.194,324.600 212.730,331.431 215.237 C 336.143 216.967,337.029 221.887,333.110 224.556 C 330.128 226.586,325.596 225.018,324.249 221.490 C 323.970 220.761,323.698 220.164,323.644 220.164 C 321.868 220.164,321.129 221.704,321.993 223.606 C 325.728 231.828,339.717 228.136,338.659 219.207 C 338.220 215.498,336.550 213.887,331.014 211.830 C 325.699 209.855,324.322 208.398,324.894 205.351 C 325.697 201.070,332.485 200.312,334.909 204.234 C 335.607 205.363,335.762 205.403,336.983 204.772 C 338.066 204.212,338.090 203.644,337.093 202.206 C 335.117 199.354,330.663 198.127,326.730 199.351 M57.428 213.816 L 57.506 227.782 58.850 227.782 L 60.194 227.782 60.272 213.816 L 60.349 199.851 58.850 199.851 L 57.350 199.851 57.428 213.816 M124.268 200.224 C 124.262 200.689,135.323 228.273,135.672 228.665 C 136.185 229.241,136.825 227.852,142.302 214.285 C 148.699 198.440,148.302 199.851,146.363 199.851 C 144.548 199.851,145.215 198.511,140.266 212.099 C 137.882 218.647,136.468 222.136,136.175 222.193 C 135.839 222.258,134.702 219.492,131.601 211.065 L 127.475 199.851 125.873 199.851 C 124.794 199.851,124.270 199.972,124.268 200.224 M173.634 213.816 L 173.712 227.782 175.056 227.782 L 176.400 227.782 176.478 213.816 L 176.556 199.851 175.056 199.851 L 173.556 199.851 173.634 213.816 M242.768 200.050 C 242.497 200.321,242.525 201.708,242.810 202.156 C 242.967 202.404,244.275 202.547,246.912 202.604 L 250.784 202.689 250.934 215.235 L 251.083 227.782 252.577 227.782 L 254.070 227.782 254.220 215.235 L 254.369 202.689 258.252 202.539 L 262.136 202.390 262.228 201.120 L 262.320 199.851 252.644 199.851 C 247.322 199.851,242.878 199.940,242.768 200.050 M280.572 210.521 L 280.657 221.224 281.637 223.214 C 285.275 230.600,298.412 230.190,301.981 222.580 L 302.763 220.911 302.855 210.381 L 302.947 199.851 301.458 199.851 L 299.968 199.851 299.872 209.933 C 299.766 221.012,299.831 220.601,297.787 223.203 C 294.620 227.233,286.720 226.401,284.391 221.792 C 283.649 220.322,283.644 220.257,283.495 210.157 L 283.346 200.000 281.916 199.909 L 280.486 199.817 280.572 210.521 " stroke="none" fill="#f6f4f0" fill-rule="evenodd"></path></g></svg>