<?xml version="1.0" standalone="no"?>
<!DOCTYPE svg PUBLIC "-//W3C//DTD SVG 20010904//EN"
 "http://www.w3.org/TR/2001/REC-SVG-20010904/DTD/svg10.dtd">
<svg version="1.0" xmlns="http://www.w3.org/2000/svg"
 width="1291.000000pt" height="964.000000pt" viewBox="0 0 1291.000000 964.000000"
 preserveAspectRatio="xMidYMid meet">
<metadata>
Created by potrace 1.15, written by Peter Selinger 2001-2017
</metadata>
<g transform="translate(0.000000,964.000000) scale(0.100000,-0.100000)"
fill="#000000" stroke="none">
<path d="M0 4820 l0 -4820 6455 0 6455 0 0 4820 0 4820 -6455 0 -6455 0 0
-4820z m1346 3036 c43 -19 358 -150 699 -291 341 -141 661 -274 710 -295 50
-21 212 -89 360 -151 302 -125 840 -349 1285 -534 162 -68 466 -194 675 -280
209 -87 427 -178 485 -202 320 -134 498 -206 525 -212 l30 -7 3 -837 2 -837
-180 0 c-99 0 -180 3 -180 6 0 3 11 43 25 88 109 361 13 748 -246 991 -148
140 -320 213 -521 223 -399 19 -753 -270 -854 -698 -13 -52 -18 -116 -19 -207
0 -73 -3 -132 -6 -130 -4 1 -76 85 -162 187 -85 102 -222 264 -303 361 -82 96
-270 319 -418 495 -149 175 -297 351 -330 390 -208 242 -278 326 -274 329 1 2
179 -23 393 -56 647 -97 877 -131 880 -127 3 2 -1090 304 -1424 393 -42 11
-45 14 -121 106 -56 67 -204 242 -304 359 -30 35 -53 66 -51 68 1 2 263 -63
580 -143 317 -80 579 -145 581 -143 1 2 -128 55 -289 117 -781 303 -1006 391
-1052 411 -39 17 -66 41 -127 113 -42 51 -143 171 -225 268 -214 254 -235 279
-231 279 3 0 40 -15 84 -34z m10112 -30 c-440 -529 -471 -564 -533 -594 -33
-16 -349 -141 -702 -277 -353 -137 -640 -251 -638 -253 1 -2 263 63 580 143
318 80 579 145 580 143 2 -2 -33 -46 -78 -99 -45 -53 -136 -160 -202 -239 -66
-79 -129 -154 -140 -166 -16 -17 -95 -42 -370 -117 -925 -250 -1116 -302
-1103 -305 7 -1 294 40 638 92 344 52 626 93 628 91 2 -1 -75 -94 -169 -206
-251 -296 -313 -370 -430 -509 -58 -69 -185 -219 -283 -335 -98 -115 -224
-264 -279 -330 -56 -66 -106 -125 -112 -131 -5 -6 -55 -66 -110 -132 -55 -67
-102 -121 -105 -122 -3 0 -3 38 -1 84 11 276 -98 551 -290 731 -148 140 -320
213 -521 223 -589 28 -1023 -603 -833 -1214 14 -43 25 -82 25 -86 0 -5 -81 -8
-180 -8 l-180 0 2 831 3 831 480 200 c264 110 581 242 705 293 124 51 470 195
770 320 300 125 635 264 745 310 110 46 391 163 625 260 234 98 478 200 543
226 64 27 170 71 235 98 64 26 223 92 352 146 129 54 260 108 291 120 31 12
65 27 75 33 38 23 34 11 -18 -52z m-4830 -968 c72 -81 132 -149 132 -152 0 -8
-367 -361 -375 -361 -1 0 -31 32 -65 70 -35 39 -84 93 -109 120 -25 28 -80 88
-121 134 l-74 83 59 56 c33 31 118 112 189 180 l130 124 50 -53 c28 -30 111
-120 184 -201z m172 -708 l0 -80 -80 0 -80 0 0 -1095 0 -1095 70 0 70 0 0 -80
0 -80 -405 0 -405 0 0 80 0 80 80 0 80 0 0 1095 0 1095 -70 0 -70 0 0 80 0 80
405 0 405 0 0 -80z m-3675 -3284 l330 -363 3 354 2 353 55 0 55 0 0 -470 c0
-390 -2 -470 -14 -470 -7 0 -155 154 -328 343 -174 188 -325 351 -337 361
l-21 19 0 -356 0 -357 -50 0 -50 0 0 475 c0 373 3 475 13 475 6 0 161 -164
342 -364z m3977 353 c29 -7 72 -20 95 -30 l43 -18 0 -61 c0 -34 -3 -60 -7 -58
-5 2 -31 15 -59 30 -100 53 -228 59 -342 16 -71 -27 -163 -112 -191 -179 -107
-247 27 -497 288 -540 86 -14 168 -1 253 42 l58 29 0 -64 0 -65 -67 -22 c-84
-26 -236 -36 -316 -19 -314 65 -476 426 -314 699 74 125 184 212 303 240 56
13 194 13 256 0z m3650 -3 c25 -7 62 -26 82 -41 34 -26 86 -99 86 -121 0 -10
-90 -58 -95 -52 -1 2 -10 17 -19 35 -45 88 -191 120 -266 57 -57 -48 -64 -144
-15 -203 19 -22 58 -41 158 -77 150 -55 196 -88 233 -169 41 -86 25 -203 -37
-278 -95 -115 -319 -130 -431 -29 -39 35 -88 119 -88 153 0 11 75 59 94 59 2
0 9 -19 14 -42 21 -80 92 -132 182 -132 102 -1 170 64 170 161 0 87 -39 120
-218 183 -104 37 -169 85 -205 154 -29 55 -28 154 1 212 26 50 102 121 139
130 15 3 33 7 38 9 27 9 137 3 177 -9z m-8794 -478 l2 -458 -60 0 -60 0 0 460
0 461 58 -3 57 -3 3 -457z m2167 445 c4 -10 65 -175 136 -367 71 -192 130
-350 132 -352 1 -2 63 163 137 366 l135 370 63 0 c34 0 62 -2 62 -4 0 -4 -50
-128 -284 -706 -46 -113 -86 -213 -89 -223 -5 -12 -15 -17 -28 -15 -17 2 -51
79 -210 473 -104 258 -189 471 -189 472 0 2 29 3 64 3 51 0 65 -3 71 -17z
m1585 -443 l0 -460 -60 0 -60 0 0 460 0 460 60 0 60 0 0 -460z m2770 410 l0
-50 -135 0 -135 0 0 -410 0 -410 -60 0 -60 0 0 410 0 410 -135 0 -135 0 0 50
0 50 330 0 330 0 0 -50z m680 -295 c6 -376 5 -372 75 -433 45 -40 96 -56 180
-56 86 -1 150 27 196 86 56 70 58 84 59 431 l0 317 58 0 57 0 -5 -352 c-5
-344 -6 -354 -28 -400 -65 -129 -201 -196 -379 -186 -145 8 -256 79 -303 194
-24 58 -25 64 -28 402 l-3 343 58 -3 58 -3 5 -340z"/>
<path d="M6245 4990 c0 -597 1 -841 2 -542 2 298 2 786 0 1085 -1 298 -2 54
-2 -543z"/>
<path d="M6385 4990 c0 -597 1 -841 2 -542 2 298 2 786 0 1085 -1 298 -2 54
-2 -543z"/>
<path d="M6515 4990 c0 -597 1 -841 2 -542 2 298 2 786 0 1085 -1 298 -2 54
-2 -543z"/>
</g>
</svg>
