<?xml version="1.0" standalone="no"?>
<!DOCTYPE svg PUBLIC "-//W3C//DTD SVG 20010904//EN"
 "http://www.w3.org/TR/2001/REC-SVG-20010904/DTD/svg10.dtd">
<svg version="1.0" xmlns="http://www.w3.org/2000/svg"
 width="19px" height="19px" viewBox="0 0 1200.000000 579.000000"
 preserveAspectRatio="xMidYMid meet">
<metadata>
Created by potrace 1.15, written by Peter Selinger 2001-2017
</metadata>
<g transform="translate(0.000000,579.000000) scale(0.100000,-0.100000)"
fill="#ffffff" stroke="none">
<path d="M721 5734 c-28 -31 -54 -67 -57 -80 -11 -44 4 -125 101 -543 l6 -23
-38 23 c-21 12 -120 74 -220 136 -171 106 -185 113 -234 113 -38 0 -66 -8
-110 -31 -32 -18 -59 -37 -59 -43 1 -11 210 -146 453 -293 109 -67 124 -73
174 -73 87 0 164 51 197 132 22 52 20 73 -18 243 -79 349 -118 495 -131 495
-7 0 -36 -25 -64 -56z"/>
<path d="M1210 5787 c0 -1 -36 -140 -80 -307 -98 -373 -100 -411 -27 -489 62
-65 149 -87 223 -56 35 15 327 184 487 283 100 61 100 65 13 110 -34 17 -68
26 -101 26 -46 1 -66 -9 -269 -127 -120 -70 -221 -126 -223 -123 -3 3 23 117
58 255 73 292 73 298 -11 382 -41 41 -70 60 -70 46z"/>
<path d="M1825 4885 c-315 -23 -449 -36 -480 -50 -95 -40 -144 -188 -95 -285
11 -22 67 -80 132 -138 233 -206 393 -340 400 -333 4 3 13 38 19 77 20 112 7
135 -149 270 -70 62 -157 139 -194 172 l-67 60 47 6 c26 3 133 13 237 21 105
9 204 18 222 21 52 8 111 82 138 172 5 17 2 22 -12 21 -10 -1 -99 -7 -198 -14z"/>
<path d="M4 4858 c8 -43 54 -116 88 -141 22 -16 61 -22 255 -38 125 -10 245
-22 266 -26 l37 -8 -196 -170 c-202 -175 -224 -201 -224 -269 0 -47 21 -136
33 -136 5 0 35 22 66 48 332 282 449 386 464 411 27 46 32 111 13 169 -36 108
-82 136 -246 151 -103 10 -523 41 -551 41 -8 0 -9 -11 -5 -32z"/>
<path d="M923 4509 c-22 -11 -52 -37 -66 -58 -24 -36 -257 -607 -257 -630 0
-27 147 -1 188 34 21 17 54 87 128 264 54 133 102 241 105 241 4 0 46 -96 94
-212 48 -117 94 -229 103 -248 23 -47 83 -79 166 -87 l66 -6 -26 69 c-76 203
-218 544 -240 577 -48 73 -172 100 -261 56z"/>
<path d="M7932 3048 l3 -1433 24 -70 c37 -111 76 -179 143 -250 68 -73 116
-105 202 -135 69 -23 252 -60 302 -60 l34 0 0 1690 0 1690 -355 0 -355 0 2
-1432z"/>
<path d="M8940 3072 c0 -1374 0 -1411 20 -1488 41 -164 133 -302 250 -376 75
-48 302 -108 408 -108 l32 0 0 1690 0 1690 -355 0 -355 0 0 -1408z"/>
<path d="M2725 4424 c-404 -62 -685 -254 -831 -569 -58 -125 -78 -228 -77
-395 1 -259 64 -441 205 -596 138 -150 301 -231 712 -355 316 -95 452 -172
512 -291 31 -62 41 -156 24 -240 -40 -203 -179 -307 -435 -324 -189 -13 -353
39 -583 185 -70 44 -148 85 -172 92 -55 14 -115 1 -159 -36 -30 -26 -231 -347
-231 -370 0 -18 100 -102 195 -165 172 -112 410 -204 619 -240 219 -37 489
-25 681 31 448 132 735 525 735 1010 0 316 -123 547 -379 706 -106 67 -263
132 -526 219 -266 88 -390 144 -464 210 -79 71 -96 110 -95 219 1 107 20 160
86 231 81 87 199 128 373 127 155 -1 270 -38 469 -150 101 -57 163 -74 219
-59 44 11 85 66 177 242 l91 174 -37 32 c-148 132 -373 240 -602 289 -73 15
-143 21 -287 24 -104 2 -203 1 -220 -1z"/>
<path d="M4514 4111 c-17 -10 -36 -32 -42 -47 -7 -16 -40 -164 -75 -328 l-62
-300 -130 -23 c-72 -13 -154 -28 -182 -34 l-53 -10 0 -157 c0 -130 3 -162 16
-181 28 -39 73 -51 198 -51 l115 0 3 -692 c4 -685 4 -694 26 -766 61 -200 179
-324 367 -388 70 -24 99 -28 230 -32 172 -4 282 13 422 67 83 33 237 125 230
139 -2 4 -49 82 -105 173 -121 197 -132 206 -215 169 -133 -58 -169 -62 -237
-27 -31 15 -51 35 -67 66 l-23 44 0 624 0 623 295 0 295 0 0 230 0 230 -295 0
-295 0 0 345 0 345 -192 0 c-171 0 -196 -2 -224 -19z"/>
<path d="M6490 3479 c-233 -27 -463 -139 -630 -308 -217 -218 -320 -490 -320
-845 0 -297 70 -557 207 -763 98 -149 286 -305 448 -372 155 -65 250 -83 460
-88 339 -9 588 49 806 189 68 44 199 155 199 169 0 20 -200 266 -226 278 -14
6 -48 11 -76 11 -51 0 -89 -16 -233 -95 -33 -19 -103 -48 -155 -66 -85 -29
-107 -32 -215 -33 -189 -1 -307 45 -417 163 -91 97 -147 234 -173 424 l-6 47
718 0 c799 0 750 -4 780 68 34 81 25 332 -17 500 -131 514 -567 787 -1150 721z
m384 -492 c143 -71 214 -185 242 -389 l6 -48 -476 0 -476 0 6 28 c42 193 133
336 253 396 87 45 146 56 263 53 100 -3 112 -6 182 -40z"/>
<path d="M10816 3479 c-165 -23 -330 -84 -472 -174 -70 -45 -188 -157 -250
-237 -169 -219 -249 -527 -224 -863 12 -157 31 -258 72 -375 137 -390 436
-644 845 -715 98 -17 357 -20 473 -5 114 15 275 58 372 100 107 46 236 132
306 203 l53 54 -99 125 c-55 69 -110 133 -123 142 -15 10 -44 16 -79 16 -48 0
-73 -9 -215 -80 -88 -44 -189 -88 -225 -97 -90 -24 -265 -23 -345 1 -236 71
-376 259 -410 554 l-7 62 710 0 c428 0 721 4 736 10 51 19 61 50 64 217 7 295
-59 517 -211 718 -90 119 -255 236 -411 292 -138 49 -403 74 -560 52z m354
-478 c80 -31 146 -84 191 -153 46 -72 68 -137 76 -230 l6 -68 -472 0 c-337 0
-471 3 -471 11 0 32 36 143 66 207 61 127 167 215 299 249 75 19 237 11 305
-16z"/>
<path d="M652 2558 l3 -883 23 -75 c60 -194 184 -334 347 -390 67 -23 180 -47
278 -58 l67 -8 0 1148 0 1148 -360 0 -361 0 3 -882z"/>
<path d="M8373 493 c-4 -10 -48 -124 -99 -253 l-92 -235 39 -3 c55 -4 73 9 92
72 l18 56 100 0 100 0 10 -28 c5 -15 17 -44 27 -63 15 -31 22 -34 65 -37 26
-2 47 0 47 4 0 4 -44 119 -97 256 l-97 248 -53 0 c-42 0 -55 -4 -60 -17z"/>
<path d="M8880 255 l0 -255 45 0 45 0 2 167 3 168 89 -115 c162 -209 173 -220
212 -220 l34 0 0 255 0 255 -45 0 -45 0 -2 -165 -3 -164 -128 164 c-127 163
-129 165 -168 165 l-39 0 0 -255z"/>
<path d="M9560 254 l0 -256 133 4 c105 3 141 8 177 25 96 43 139 116 140 232
0 90 -23 145 -81 194 -54 47 -97 57 -243 57 l-126 0 0 -256z m270 158 c54 -26
83 -90 77 -169 -8 -111 -56 -153 -174 -153 l-73 0 0 170 0 170 68 0 c44 0 79
-6 102 -18z"/>
<path d="M10250 255 l0 -255 160 0 160 0 0 45 0 45 -110 0 -110 0 0 65 0 65
85 0 85 0 0 40 0 40 -85 0 -85 0 0 65 0 65 110 0 110 0 0 40 0 40 -160 0 -160
0 0 -255z"/>
<path d="M10780 255 l0 -255 150 0 150 0 0 45 0 45 -100 0 -100 0 0 210 0 210
-50 0 -50 0 0 -255z"/>
<path d="M11310 274 c-51 -130 -95 -245 -97 -255 -5 -17 1 -19 41 -19 51 0 65
14 87 88 l12 42 101 0 101 0 19 -52 c10 -29 23 -59 28 -65 12 -15 98 -18 98
-3 0 7 -135 360 -187 488 -3 7 -25 12 -57 12 l-53 0 -93 -236z"/>
</g>
</svg>
