<?xml version="1.0" standalone="no"?>
<!DOCTYPE svg PUBLIC "-//W3C//DTD SVG 20010904//EN"
 "http://www.w3.org/TR/2001/REC-SVG-20010904/DTD/svg10.dtd">
<svg version="1.0" xmlns="http://www.w3.org/2000/svg"
 width="17px" height="17px" viewBox="0 0 800.000000 600.000000"
 preserveAspectRatio="xMidYMid meet">
<metadata>
Created by potrace 1.15, written by Peter Selinger 2001-2017
</metadata>
<g transform="translate(0.000000,600.000000) scale(0.100000,-0.100000)"
fill="#ffffff" stroke="none">
<path d="M0 3000 l0 -3000 4000 0 4000 0 0 3000 0 3000 -4000 0 -4000 0 0
-3000z m7118 2803 c-9 -10 -183 -220 -388 -468 -250 -302 -379 -450 -391 -449
-10 0 -16 -3 -14 -6 5 -7 -435 -183 -442 -177 -5 6 -54 374 -51 389 2 7 113
74 248 149 877 490 1036 578 1044 578 5 1 2 -7 -6 -16z m-5528 -374 l65 -37 2
-253 c1 -145 -2 -245 -6 -234 -19 44 -244 592 -252 613 -10 25 -14 27 191 -89z
m2752 -256 l-160 -208 26 -274 26 -274 93 -44 92 -44 -20 -52 c-42 -106 -131
-322 -135 -326 -2 -2 -37 22 -79 53 -47 36 -73 61 -69 69 5 9 4 9 -5 1 -10 -9
0 -68 44 -270 31 -143 58 -265 60 -271 3 -7 3 -13 0 -13 -2 0 -53 67 -113 148
-103 142 -110 155 -152 278 l-44 129 -144 115 c-79 63 -148 120 -153 127 -8 8
14 23 80 54 50 23 91 45 91 49 0 5 13 86 30 182 16 95 30 183 30 196 0 21 -3
22 -106 22 -61 0 -104 4 -102 9 2 5 59 67 128 137 l125 127 305 147 c168 81
307 146 308 144 2 -1 -68 -96 -156 -211z m-1862 -235 c140 -77 284 -157 319
-176 60 -33 63 -36 40 -43 -37 -12 -510 -101 -513 -97 -2 1 -24 77 -49 168
-26 91 -56 196 -67 233 -17 63 -18 68 -2 62 9 -3 131 -69 272 -147z m3269 -83
c-34 -124 -66 -224 -69 -223 -4 2 -59 59 -124 128 -113 121 -116 124 -94 137
13 6 95 52 183 101 88 49 162 88 164 86 2 -2 -25 -105 -60 -229z m-2515 -337
l331 -183 -90 -6 c-50 -4 -152 -9 -227 -12 l-137 -4 -97 171 c-54 94 -104 181
-112 194 -8 12 -11 22 -6 22 4 0 156 -82 338 -182z m1874 160 c-8 -13 -58
-100 -112 -194 l-97 -171 -137 4 c-75 3 -177 8 -227 12 l-89 6 329 182 c182
101 334 183 339 183 4 0 2 -10 -6 -22z m765 -131 c-25 -42 -378 -466 -381
-457 -2 5 -7 8 -11 6 -4 -3 -72 60 -151 139 l-143 143 44 12 c24 6 77 20 117
31 88 23 80 24 85 -3 4 -21 4 -21 6 3 1 25 7 28 214 82 243 64 230 61 220 44z
m-1973 -483 c0 -7 -151 -117 -154 -113 -5 5 -146 350 -146 356 0 2 68 -51 150
-118 83 -67 150 -123 150 -125z m1224 -143 l59 -6 -169 -145 c-93 -80 -181
-155 -195 -168 l-27 -22 -67 167 c-37 93 -69 174 -72 181 -4 10 38 11 203 6
115 -4 235 -9 268 -13z m-866 -824 c34 -156 62 -290 62 -299 0 -9 -41 -34
-110 -67 -60 -29 -110 -55 -110 -57 0 -5 94 -818 104 -899 3 -24 -35 60 -95
210 -91 228 -104 270 -149 472 l-50 222 45 205 c25 113 48 213 52 223 8 23
176 273 184 273 3 0 33 -127 67 -283z m-480 -535 c69 -150 70 -150 -62 -29
l-70 64 19 88 18 89 18 -39 c9 -22 44 -100 77 -173z m571 117 c12 -50 50 -225
86 -388 l65 -296 -34 -125 c-30 -109 -35 -122 -44 -100 -5 14 -66 161 -136
327 -69 167 -126 305 -126 308 0 7 162 365 166 365 1 0 12 -41 23 -91z m-69
-1501 l18 -133 -135 -405 c-75 -223 -140 -412 -144 -420 -5 -8 -9 122 -9 289
0 276 2 306 18 324 9 11 12 17 5 13 -7 -3 40 102 104 234 64 132 118 238 121
236 2 -2 12 -64 22 -138z"/>
</g>
</svg>
