<svg id="svg" version="1.1" width="30px" height="30px" viewBox="0 0 400 300" xmlns="http://www.w3.org/2000/svg" xmlns:xlink="http://www.w3.org/1999/xlink" ><g id="svgg"><path id="path0" d="M353.638 10.143 C 352.483 10.762,351.200 11.484,350.788 11.748 C 350.375 12.012,349.092 12.734,347.937 13.353 C 344.355 15.271,340.988 17.128,333.083 21.543 C 329.700 23.433,326.244 25.355,325.403 25.814 C 321.800 27.782,320.150 28.715,317.179 30.465 C 314.166 32.239,302.707 38.626,295.724 42.422 C 293.908 43.410,292.041 44.531,291.575 44.914 C 291.108 45.298,290.624 45.611,290.498 45.611 C 290.217 45.611,272.422 55.457,272.051 55.818 C 271.812 56.051,275.180 59.828,281.655 66.585 C 284.593 69.652,284.265 70.070,287.171 59.565 C 287.308 59.070,288.119 56.234,288.972 53.263 C 289.826 50.293,290.596 47.558,290.683 47.187 C 290.957 46.029,291.281 46.442,291.509 48.237 C 291.629 49.186,291.909 51.380,292.130 53.113 C 292.351 54.846,292.760 58.087,293.039 60.315 C 293.317 62.543,293.673 64.526,293.829 64.721 C 294.192 65.174,297.086 64.288,300.825 62.577 C 301.320 62.350,303.211 61.602,305.026 60.913 C 308.162 59.725,315.990 56.685,317.378 56.117 C 317.946 55.884,323.593 49.280,331.133 40.031 C 332.453 38.411,334.074 36.458,334.734 35.690 C 335.955 34.270,337.117 32.870,345.679 22.506 C 348.337 19.287,351.604 15.353,352.938 13.764 C 357.208 8.676,357.304 8.180,353.638 10.143 M355.091 10.481 C 354.787 10.965,352.716 13.554,350.488 16.235 C 342.322 26.060,332.785 37.584,329.428 41.681 C 322.689 49.906,318.473 54.766,317.999 54.858 C 317.513 54.951,317.479 54.172,317.479 42.947 L 317.479 30.937 318.755 30.075 C 319.456 29.601,321.380 28.495,323.031 27.619 C 324.681 26.742,327.922 24.919,330.233 23.568 C 332.543 22.217,336.864 19.784,339.835 18.162 C 342.806 16.540,345.979 14.780,346.887 14.252 C 349.323 12.833,355.333 9.602,355.537 9.602 C 355.596 9.602,355.395 9.998,355.091 10.481 M70.121 24.681 C 75.481 38.400,82.702 55.514,83.130 55.514 C 83.510 55.514,105.636 46.097,107.281 45.235 L 108.102 44.805 106.189 43.748 C 105.137 43.166,99.685 40.154,94.074 37.055 C 88.462 33.956,83.533 31.112,83.121 30.736 C 82.208 29.904,70.603 23.406,70.030 23.406 C 69.701 23.406,69.718 23.650,70.121 24.681 M224.156 30.827 C 223.908 30.922,220.938 32.345,217.554 33.988 C 214.171 35.632,210.323 37.485,209.002 38.107 C 207.682 38.729,203.698 40.658,200.150 42.393 L 193.698 45.549 190.391 48.956 C 182.133 57.462,180.903 58.803,181.086 59.099 C 181.210 59.301,183.179 59.415,186.524 59.415 C 192.505 59.415,192.354 59.343,191.795 61.916 C 191.610 62.768,191.165 65.221,190.807 67.367 C 190.449 69.512,190.053 71.875,189.927 72.618 C 189.801 73.361,189.506 75.151,189.271 76.596 C 188.758 79.752,189.369 79.143,184.379 81.473 C 182.095 82.539,180.039 83.598,179.812 83.826 C 179.422 84.215,180.635 87.747,182.918 92.873 C 183.139 93.368,183.946 95.326,184.713 97.224 C 187.382 103.834,186.521 103.602,192.135 99.220 C 196.397 95.893,196.349 95.493,193.343 109.227 C 190.615 121.690,190.562 121.945,190.675 122.058 C 190.772 122.155,197.671 112.960,198.782 111.253 C 199.710 109.827,200.211 110.173,203.338 114.404 C 204.955 116.590,207.210 119.640,208.349 121.181 C 211.463 125.393,211.494 124.932,208.893 113.128 C 206.373 101.692,205.541 97.734,205.637 97.639 C 205.695 97.581,207.219 98.650,209.023 100.016 C 210.827 101.381,212.462 102.597,212.657 102.717 C 212.852 102.837,213.590 102.545,214.307 102.063 C 215.020 101.584,219.182 99.104,223.556 96.552 C 227.929 94.000,233.871 90.524,236.759 88.827 C 239.647 87.130,242.718 85.395,243.584 84.970 L 245.157 84.198 250.602 74.649 C 253.597 69.397,255.965 65.017,255.863 64.916 C 255.695 64.748,253.287 66.033,241.710 72.471 C 234.428 76.520,231.480 78.149,226.257 81.006 C 224.359 82.044,222.572 83.159,222.285 83.485 C 221.768 84.072,221.758 84.071,220.707 83.422 C 220.125 83.062,217.929 81.970,215.826 80.996 C 212.376 79.396,211.980 79.132,211.761 78.288 C 211.454 77.104,211.277 77.262,211.473 78.546 C 211.594 79.343,211.849 79.623,212.862 80.075 C 217.522 82.149,220.266 83.583,220.191 83.905 C 220.074 84.410,206.564 95.380,205.342 95.963 C 204.594 96.319,204.400 96.574,204.512 97.051 C 204.593 97.394,204.930 98.957,205.261 100.525 C 206.305 105.460,207.000 108.649,207.942 112.828 C 209.410 119.339,209.793 121.259,209.688 121.574 C 209.633 121.737,207.837 119.469,205.695 116.533 C 203.553 113.597,201.383 110.718,200.872 110.136 C 199.370 108.423,196.057 98.574,195.620 94.524 C 195.155 90.221,194.758 85.762,194.631 83.421 C 194.572 82.348,194.368 80.053,194.177 78.320 C 192.795 65.792,192.541 58.874,193.190 51.475 C 193.729 45.328,192.461 46.467,206.152 39.830 C 209.205 38.350,214.066 35.992,216.954 34.590 C 223.783 31.277,224.156 31.119,224.156 31.540 C 224.156 31.873,219.519 38.125,216.836 41.410 C 215.636 42.880,209.752 50.454,209.014 51.480 C 208.827 51.740,208.853 52.499,209.089 53.640 C 209.289 54.608,209.468 56.067,209.488 56.882 C 209.507 57.698,209.636 58.770,209.774 59.265 C 210.032 60.193,209.982 58.829,209.580 53.991 L 209.392 51.718 213.047 46.939 C 215.057 44.311,217.333 41.335,218.104 40.326 C 218.874 39.317,220.754 36.859,222.281 34.863 C 225.362 30.834,225.627 30.264,224.156 30.827 M109.725 45.534 C 109.579 45.770,115.862 68.043,116.254 68.676 C 116.534 69.129,117.508 69.106,120.118 68.586 C 121.307 68.349,125.184 67.597,128.732 66.915 C 143.444 64.088,143.299 64.122,142.985 63.615 C 142.897 63.472,139.890 61.741,136.303 59.767 C 132.717 57.794,126.407 54.315,122.281 52.036 C 111.952 46.330,109.892 45.264,109.725 45.534 M135.322 59.845 C 138.698 61.714,141.501 63.363,141.550 63.510 C 141.599 63.657,139.984 64.092,137.961 64.477 C 134.401 65.153,131.430 65.728,123.135 67.347 C 116.737 68.595,116.766 68.984,122.779 62.678 C 125.199 60.141,127.471 57.693,127.827 57.239 C 128.706 56.122,128.410 56.019,135.322 59.845 M210.106 63.990 C 210.235 65.352,210.478 67.554,210.647 68.883 C 210.815 70.212,210.969 71.967,210.988 72.784 C 211.008 73.600,211.131 74.674,211.261 75.169 C 211.399 75.693,211.437 74.880,211.351 73.218 C 211.270 71.650,211.143 70.175,211.067 69.939 C 210.992 69.704,210.802 67.821,210.644 65.756 C 210.487 63.690,210.248 61.891,210.114 61.757 C 209.981 61.623,209.977 62.628,210.106 63.990 M144.689 65.238 C 144.915 66.218,155.338 84.103,155.841 84.374 C 156.771 84.875,178.245 83.971,178.245 83.431 C 178.245 83.318,176.523 82.273,174.419 81.109 C 172.314 79.946,167.352 77.200,163.391 75.006 C 144.536 64.567,144.535 64.566,144.689 65.238 M288.972 73.083 C 286.909 73.633,284.209 74.360,282.971 74.698 C 274.425 77.032,271.184 77.906,267.217 78.948 C 260.808 80.630,260.416 80.744,259.415 81.219 C 258.920 81.453,256.759 82.100,254.614 82.657 C 249.417 84.005,247.157 84.626,247.043 84.739 C 246.949 84.834,257.422 89.165,268.518 93.620 C 275.664 96.489,274.397 96.768,278.717 91.373 C 280.303 89.392,282.290 86.962,283.133 85.971 C 283.975 84.981,285.810 82.753,287.209 81.020 C 288.609 79.287,290.724 76.673,291.911 75.210 C 294.869 71.563,294.816 71.524,288.972 73.083 M292.095 74.044 C 291.356 75.022,287.640 79.580,281.320 87.259 C 280.330 88.462,279.115 89.955,278.620 90.577 C 276.757 92.917,276.040 93.694,275.884 93.538 C 275.739 93.394,277.251 88.372,277.891 86.872 C 278.031 86.542,278.375 85.529,278.655 84.621 C 281.421 75.654,281.390 75.714,283.624 75.113 C 289.922 73.421,291.608 72.999,292.234 72.961 L 292.944 72.918 292.095 74.044 M232.562 103.372 C 232.304 103.682,232.326 103.990,232.651 104.630 C 232.887 105.095,234.398 108.785,236.007 112.828 C 239.828 122.428,238.786 121.879,244.272 117.179 C 256.204 106.956,258.816 104.652,258.906 104.269 C 259.023 103.774,256.947 103.610,247.262 103.351 C 243.218 103.243,238.333 103.111,236.407 103.057 C 233.713 102.983,232.824 103.055,232.562 103.372 M168.539 103.751 C 168.084 104.488,162.340 119.229,162.460 119.350 C 162.541 119.431,164.337 118.306,166.450 116.851 C 168.563 115.395,172.116 112.957,174.344 111.431 C 184.479 104.492,185.139 104.007,184.769 103.772 C 184.293 103.470,168.725 103.450,168.539 103.751 M214.854 104.951 C 214.854 105.180,218.036 112.218,221.726 120.148 L 222.968 122.817 224.987 122.610 C 226.098 122.497,227.817 122.285,228.807 122.141 C 229.797 121.996,232.161 121.711,234.059 121.507 C 239.102 120.965,239.195 121.257,232.558 116.772 C 230.330 115.266,227.494 113.331,226.257 112.472 C 215.674 105.124,214.854 104.582,214.854 104.951 M200.750 134.277 C 200.750 142.454,200.738 142.611,199.879 145.927 C 198.239 152.250,195.291 166.259,195.492 166.776 C 195.602 167.060,196.006 168.777,196.391 170.593 C 196.775 172.408,197.453 175.514,197.896 177.494 C 199.057 182.675,199.503 184.710,200.022 187.190 L 200.482 189.384 198.792 196.192 C 197.862 199.937,195.152 210.900,192.769 220.555 C 190.386 230.210,188.115 239.392,187.721 240.960 C 186.260 246.776,186.019 246.869,191.600 239.460 C 212.722 211.414,210.779 214.629,210.102 208.852 C 209.918 207.284,209.558 204.179,209.302 201.950 C 209.046 199.722,208.714 196.887,208.563 195.649 C 208.413 194.411,208.149 192.116,207.975 190.548 C 207.480 186.072,207.051 182.477,206.742 180.195 C 205.214 168.932,205.106 166.287,206.152 165.732 C 206.564 165.513,209.035 164.323,211.641 163.087 L 216.381 160.840 216.181 159.715 C 216.071 159.096,215.719 157.374,215.398 155.889 C 215.077 154.404,214.633 152.311,214.411 151.238 C 214.063 149.557,212.736 143.537,211.863 139.685 C 211.294 137.177,210.709 134.519,210.339 132.768 L 209.955 130.951 205.746 128.566 C 203.430 127.255,201.359 126.138,201.143 126.085 C 200.826 126.006,200.750 127.595,200.750 134.277 M210.017 133.758 C 210.334 135.427,211.057 138.874,211.542 141.035 C 211.672 141.613,212.058 143.368,212.401 144.936 C 213.067 147.986,214.090 152.633,214.582 154.839 C 215.272 157.931,215.486 159.108,215.378 159.216 C 215.314 159.279,213.519 157.544,211.388 155.359 C 200.122 143.812,200.920 144.710,201.263 143.968 C 201.814 142.777,209.171 132.033,209.435 132.033 C 209.574 132.033,209.836 132.809,210.017 133.758 M201.258 149.612 C 201.455 150.754,201.766 152.296,201.949 153.038 C 202.132 153.781,202.470 155.266,202.701 156.339 C 202.931 157.412,203.270 158.897,203.454 159.640 C 204.363 163.313,204.647 165.806,204.358 167.592 C 203.903 170.400,203.280 173.548,203.081 174.044 C 202.852 174.611,202.544 176.024,202.394 177.194 C 202.331 177.689,202.144 178.635,201.978 179.295 C 201.142 182.637,200.995 183.271,200.846 184.171 C 200.604 185.632,200.233 185.352,199.853 183.421 C 199.666 182.472,199.239 180.480,198.902 178.995 C 198.180 175.801,197.672 173.513,197.005 170.443 C 196.736 169.205,196.374 167.629,196.200 166.940 C 196.026 166.252,195.961 165.564,196.055 165.412 C 196.149 165.260,196.770 162.650,197.435 159.612 C 198.099 156.574,198.705 153.818,198.782 153.488 C 198.996 152.567,199.850 148.773,200.021 147.991 C 200.297 146.722,200.895 147.505,201.258 149.612 M215.344 163.016 C 214.958 163.882,213.125 167.954,211.271 172.065 C 209.136 176.800,207.955 179.769,208.050 180.167 C 208.290 181.174,221.138 211.656,221.457 211.974 C 221.877 212.395,221.882 212.382,223.091 207.802 C 223.701 205.491,224.415 202.881,224.677 202.002 C 225.163 200.370,225.104 199.653,224.158 195.649 C 224.022 195.071,223.681 193.518,223.401 192.198 C 223.121 190.878,222.786 189.325,222.656 188.747 C 222.525 188.170,222.190 186.617,221.910 185.296 C 221.630 183.976,221.290 182.423,221.155 181.845 C 220.935 180.909,220.443 178.695,219.653 175.094 C 219.358 173.748,219.003 172.179,218.298 169.092 C 218.034 167.937,217.638 166.031,217.418 164.856 C 216.722 161.137,216.335 160.794,215.344 163.016 M184.082 162.364 C 183.952 162.573,183.749 163.227,183.629 163.818 C 183.510 164.408,183.187 165.904,182.912 167.142 C 182.637 168.380,182.408 169.797,182.405 170.293 C 182.398 171.207,181.953 173.470,180.930 177.794 C 180.617 179.115,180.233 180.870,180.076 181.695 C 179.638 183.995,177.789 192.433,176.887 196.249 C 176.362 198.469,176.366 198.467,178.947 195.445 C 193.883 177.957,192.878 179.724,190.614 174.944 C 189.949 173.541,188.439 170.233,187.258 167.592 C 185.000 162.543,184.490 161.703,184.082 162.364 M217.244 167.037 C 217.712 169.158,218.230 171.230,218.396 171.643 C 218.562 172.056,218.861 173.203,219.061 174.194 C 219.260 175.184,219.536 176.399,219.674 176.894 C 219.811 177.389,220.079 178.605,220.268 179.595 C 220.458 180.585,220.723 181.868,220.857 182.446 C 220.992 183.023,221.304 184.441,221.550 185.596 C 221.797 186.752,222.351 189.317,222.783 191.298 C 223.214 193.278,223.698 195.551,223.858 196.347 C 224.018 197.144,224.209 197.893,224.283 198.012 C 224.356 198.131,224.304 198.411,224.166 198.633 C 223.893 199.075,223.630 198.813,220.367 194.867 C 219.398 193.695,216.630 190.384,214.217 187.511 C 208.278 180.438,208.142 180.229,208.734 179.083 C 208.990 178.588,210.114 176.137,211.231 173.637 C 214.264 166.850,216.136 162.922,216.272 163.059 C 216.339 163.126,216.777 164.916,217.244 167.037 M212.513 234.737 C 212.344 234.941,211.668 236.257,211.012 237.659 C 210.356 239.062,207.711 244.516,205.135 249.779 L 200.450 259.348 200.450 274.670 C 200.450 284.017,200.558 289.881,200.727 289.707 C 200.879 289.551,201.277 288.612,201.611 287.622 C 201.946 286.632,203.581 281.838,205.245 276.969 C 206.908 272.101,209.068 265.754,210.044 262.866 C 211.020 259.977,212.514 255.589,213.365 253.113 C 214.824 248.871,214.901 248.500,214.698 246.662 C 214.580 245.589,214.446 244.306,214.399 243.811 C 214.353 243.316,214.157 241.830,213.965 240.510 C 213.774 239.190,213.541 237.331,213.449 236.379 C 213.272 234.559,213.023 234.122,212.513 234.737 " stroke="none" fill="#ffffff" fill-rule="evenodd"></path><path id="path1" d="M354.389 7.803 C 353.976 8.135,352.761 8.839,351.688 9.367 C 350.615 9.895,349.197 10.662,348.537 11.072 C 347.877 11.481,346.594 12.201,345.686 12.670 C 343.258 13.925,341.655 14.829,341.485 15.038 C 341.403 15.140,340.998 15.324,340.585 15.448 C 340.173 15.572,339.565 15.911,339.235 16.201 C 338.905 16.492,338.095 16.975,337.434 17.275 C 336.774 17.574,335.694 18.157,335.034 18.569 C 334.374 18.981,333.091 19.703,332.183 20.172 C 329.755 21.427,328.152 22.331,327.982 22.540 C 327.899 22.642,327.494 22.826,327.082 22.950 C 326.669 23.074,326.062 23.411,325.731 23.700 C 325.401 23.989,324.085 24.729,322.806 25.344 C 321.527 25.959,320.411 26.577,320.325 26.715 C 320.239 26.854,319.462 27.316,318.599 27.741 C 316.300 28.873,314.643 29.826,314.529 30.083 C 314.474 30.206,314.306 30.308,314.156 30.308 C 313.684 30.308,311.478 31.339,311.478 31.560 C 311.478 31.676,310.465 32.264,309.228 32.868 C 307.990 33.471,306.913 34.068,306.835 34.194 C 306.757 34.321,305.711 34.918,304.510 35.522 C 302.247 36.659,301.233 37.236,300.975 37.531 C 300.893 37.626,300.184 37.964,299.401 38.282 C 298.618 38.600,297.976 38.953,297.976 39.066 C 297.975 39.180,296.962 39.766,295.724 40.370 C 294.487 40.973,293.410 41.570,293.332 41.696 C 293.254 41.823,292.207 42.420,291.006 43.024 C 288.744 44.161,287.730 44.738,287.472 45.033 C 287.389 45.128,286.681 45.466,285.898 45.784 C 285.114 46.101,284.473 46.454,284.472 46.568 C 284.472 46.682,283.459 47.268,282.221 47.872 C 280.983 48.475,279.907 49.072,279.828 49.199 C 279.750 49.326,278.399 50.055,276.827 50.820 C 275.255 51.585,273.968 52.313,273.967 52.437 C 273.967 52.561,273.325 52.923,272.542 53.241 C 271.759 53.559,271.050 53.897,270.968 53.991 C 270.718 54.277,269.719 54.843,267.667 55.859 C 266.594 56.390,265.514 56.990,265.266 57.193 C 265.019 57.396,263.837 58.052,262.641 58.651 C 261.444 59.249,260.465 59.835,260.464 59.952 C 260.463 60.069,259.822 60.425,259.039 60.743 C 258.255 61.061,257.547 61.399,257.464 61.493 C 257.218 61.776,256.227 62.339,254.164 63.367 C 253.091 63.902,251.673 64.675,251.013 65.085 C 250.353 65.495,249.070 66.217,248.162 66.690 C 245.802 67.920,244.135 68.844,243.961 69.017 C 243.878 69.100,243.338 69.414,242.761 69.715 C 240.221 71.040,238.629 71.917,237.574 72.574 C 236.950 72.962,235.668 73.678,234.724 74.166 C 232.214 75.463,230.628 76.346,230.458 76.541 C 230.375 76.636,229.667 76.974,228.883 77.291 C 228.100 77.609,227.459 77.958,227.458 78.066 C 227.457 78.174,226.545 78.708,225.431 79.252 C 224.317 79.796,223.103 80.507,222.733 80.831 C 221.681 81.753,220.631 81.549,216.939 79.703 C 212.652 77.560,213.028 78.812,211.966 63.166 C 211.876 61.846,211.690 60.630,211.553 60.465 C 211.415 60.299,211.258 58.331,211.203 56.091 L 211.103 52.018 212.086 50.840 C 212.627 50.192,213.336 49.388,213.661 49.052 C 213.987 48.716,214.254 48.303,214.254 48.135 C 214.254 47.967,214.726 47.372,215.304 46.812 C 215.881 46.252,216.354 45.679,216.354 45.539 C 216.354 45.316,217.198 44.207,220.095 40.619 C 220.513 40.101,220.855 39.577,220.855 39.455 C 220.855 39.333,221.294 38.740,221.830 38.139 C 222.367 37.538,223.143 36.596,223.556 36.048 C 223.968 35.499,224.576 34.692,224.906 34.254 C 226.722 31.847,226.890 31.488,226.798 30.222 C 226.607 27.577,227.334 27.314,206.562 37.541 C 202.909 39.339,199.788 40.810,199.625 40.810 C 199.462 40.810,196.647 42.161,193.368 43.811 C 190.090 45.461,187.281 46.812,187.125 46.812 C 186.856 46.812,183.453 48.405,177.944 51.110 C 175.872 52.128,175.375 52.504,175.293 53.113 C 175.238 53.526,175.069 53.992,174.918 54.149 C 174.767 54.305,174.644 54.685,174.644 54.993 C 174.644 55.300,174.104 57.139,173.443 59.079 C 172.159 62.853,171.915 64.926,172.718 65.234 C 173.708 65.614,175.156 65.411,175.694 64.816 C 175.993 64.486,176.395 64.216,176.588 64.216 C 176.782 64.216,177.257 63.878,177.644 63.466 C 178.032 63.053,178.475 62.716,178.629 62.716 C 178.783 62.716,179.420 62.311,180.045 61.815 L 181.182 60.915 185.715 60.915 L 190.248 60.915 190.248 61.648 C 190.248 62.051,190.129 62.453,189.985 62.542 C 189.841 62.632,189.638 63.416,189.534 64.286 C 189.168 67.357,188.559 71.273,188.378 71.718 C 188.277 71.965,188.117 72.776,188.023 73.518 C 187.524 77.453,187.302 78.320,186.795 78.320 C 186.553 78.320,184.889 79.062,183.098 79.970 C 179.424 81.832,179.242 81.869,178.104 80.974 C 177.317 80.355,175.866 79.552,170.593 76.815 C 169.272 76.130,167.989 75.405,167.742 75.204 C 167.494 75.003,166.482 74.451,165.491 73.976 C 164.501 73.502,163.481 72.937,163.224 72.722 C 162.776 72.346,161.332 71.548,156.789 69.166 C 155.634 68.560,154.486 67.901,154.239 67.701 C 153.991 67.501,152.978 66.947,151.988 66.469 C 150.998 65.992,149.868 65.359,149.477 65.062 C 149.086 64.766,147.803 64.043,146.626 63.455 C 144.260 62.273,141.340 60.642,140.699 60.143 C 140.471 59.966,139.475 59.433,138.485 58.958 C 137.494 58.483,136.474 57.921,136.217 57.710 C 135.702 57.287,133.286 55.970,129.218 53.894 C 127.752 53.146,126.334 52.344,126.067 52.112 C 125.800 51.880,125.041 51.446,124.381 51.148 C 123.721 50.850,122.776 50.326,122.281 49.985 C 121.406 49.381,119.499 48.349,114.995 46.045 C 113.794 45.430,112.743 44.815,112.659 44.679 C 112.574 44.543,111.194 43.795,109.591 43.017 C 107.988 42.239,106.467 41.427,106.210 41.213 C 105.761 40.838,104.309 40.036,99.775 37.658 C 98.620 37.053,97.472 36.390,97.224 36.185 C 96.977 35.981,95.964 35.425,94.974 34.951 C 93.983 34.476,92.963 33.915,92.706 33.704 C 92.257 33.335,90.770 32.515,86.272 30.156 C 85.116 29.551,83.968 28.888,83.721 28.683 C 83.473 28.479,82.461 27.924,81.470 27.449 C 80.480 26.974,79.460 26.414,79.203 26.203 C 78.690 25.781,76.447 24.561,71.882 22.220 C 70.240 21.378,68.687 20.517,68.432 20.308 C 68.176 20.099,67.157 19.531,66.167 19.047 C 65.176 18.563,64.148 17.990,63.881 17.775 C 63.419 17.402,61.072 16.121,57.190 14.121 C 56.214 13.618,55.201 13.027,54.939 12.807 C 54.678 12.586,53.550 11.961,52.433 11.417 C 51.316 10.873,50.336 10.322,50.257 10.193 C 49.767 9.401,45.536 7.774,44.190 7.860 C 42.491 7.969,41.942 9.504,43.196 10.639 C 43.534 10.945,43.811 11.350,43.811 11.538 C 43.811 11.727,44.351 12.409,45.011 13.053 C 45.671 13.698,46.212 14.351,46.212 14.505 C 46.212 14.659,47.224 15.900,48.462 17.264 C 49.700 18.627,50.713 19.845,50.713 19.969 C 50.713 20.094,51.258 20.817,51.925 21.576 C 57.043 27.403,58.215 28.782,58.215 28.975 C 58.215 29.096,58.788 29.847,59.490 30.643 C 60.191 31.439,61.778 33.318,63.016 34.818 C 64.254 36.318,65.840 38.193,66.542 38.984 C 67.243 39.775,67.817 40.521,67.817 40.642 C 67.817 40.763,68.931 42.133,70.293 43.686 C 73.812 47.701,74.719 48.803,74.719 49.068 C 74.719 49.287,76.019 50.789,78.653 53.614 C 79.295 54.302,79.820 54.982,79.820 55.127 C 79.820 55.661,82.401 57.882,83.271 58.095 C 83.766 58.217,84.576 58.563,85.071 58.864 C 85.566 59.166,86.154 59.413,86.376 59.414 C 86.599 59.414,87.240 59.617,87.802 59.865 C 88.363 60.113,89.281 60.518,89.843 60.765 C 90.404 61.013,91.014 61.215,91.197 61.215 C 91.381 61.215,91.766 61.339,92.052 61.490 C 93.082 62.033,94.771 62.716,95.085 62.716 C 95.261 62.716,95.886 62.986,96.474 63.316 C 97.062 63.646,97.687 63.916,97.863 63.916 C 98.040 63.916,98.643 64.119,99.204 64.366 C 99.766 64.614,100.684 65.019,101.246 65.266 C 101.807 65.514,102.416 65.716,102.600 65.716 C 102.784 65.716,103.168 65.835,103.455 65.980 C 104.847 66.683,106.305 67.217,106.837 67.217 C 107.161 67.217,107.427 67.352,107.427 67.517 C 107.427 67.682,107.756 67.817,108.159 67.817 C 108.562 67.817,108.969 67.942,109.063 68.094 C 109.157 68.246,109.654 68.463,110.168 68.576 C 110.682 68.689,111.524 69.024,112.040 69.320 C 112.556 69.617,113.417 69.951,113.953 70.062 C 114.490 70.174,114.929 70.390,114.929 70.541 C 114.929 70.693,115.258 70.818,115.661 70.818 C 116.064 70.818,116.471 70.942,116.565 71.095 C 116.659 71.247,117.156 71.464,117.670 71.577 C 118.184 71.690,119.026 72.024,119.542 72.321 C 120.058 72.617,120.919 72.951,121.455 73.063 C 121.992 73.175,122.431 73.390,122.431 73.542 C 122.431 73.694,122.685 73.818,122.996 73.818 C 123.308 73.818,123.949 74.020,124.422 74.267 C 124.895 74.513,125.510 74.716,125.789 74.717 C 126.068 74.718,126.380 74.854,126.482 75.019 C 126.586 75.188,126.341 75.319,125.917 75.319 C 125.504 75.319,125.083 75.184,124.981 75.019 C 124.879 74.854,124.407 74.719,123.931 74.719 C 123.455 74.719,122.991 74.597,122.899 74.448 C 122.807 74.299,121.888 74.082,120.856 73.965 C 119.824 73.847,118.845 73.649,118.680 73.523 C 118.515 73.397,117.974 73.215,117.479 73.118 C 115.211 72.676,113.150 72.139,112.949 71.938 C 112.827 71.817,112.373 71.718,111.938 71.718 C 111.503 71.718,111.002 71.573,110.825 71.395 C 110.647 71.217,109.371 71.049,107.989 71.020 L 105.476 70.968 105.388 72.469 C 105.306 73.877,105.376 74.045,106.514 75.156 C 107.181 75.808,107.727 76.444,107.727 76.570 C 107.727 76.696,108.200 77.272,108.777 77.849 C 109.355 78.427,109.827 79.014,109.827 79.154 C 109.827 79.293,110.233 79.796,110.728 80.270 C 111.223 80.744,111.628 81.263,111.628 81.422 C 111.628 81.582,112.314 82.468,113.151 83.392 C 113.989 84.316,115.002 85.434,115.402 85.877 C 115.802 86.321,116.129 86.799,116.129 86.940 C 116.129 87.081,116.737 87.793,117.479 88.522 C 118.222 89.251,118.830 89.972,118.830 90.124 C 118.830 90.422,120.219 92.111,122.134 94.142 C 122.792 94.839,123.331 95.522,123.331 95.658 C 123.331 96.102,125.296 97.824,125.803 97.824 C 126.074 97.824,126.372 97.946,126.464 98.096 C 126.556 98.245,128.049 98.463,129.782 98.582 C 131.515 98.700,132.933 98.903,132.933 99.034 C 132.933 99.165,133.710 99.346,134.659 99.437 C 138.803 99.835,142.806 100.393,143.012 100.600 C 143.135 100.724,143.813 100.825,144.518 100.825 C 145.224 100.825,145.874 100.944,145.964 101.089 C 146.054 101.234,147.547 101.450,149.283 101.568 C 154.484 101.923,152.896 102.326,146.297 102.326 C 140.361 102.326,140.145 102.347,139.818 102.957 C 139.319 103.890,139.728 105.599,140.526 105.912 C 140.889 106.055,141.787 106.791,142.523 107.549 C 143.259 108.307,143.976 108.927,144.116 108.927 C 144.257 108.927,145.073 109.593,145.929 110.406 C 149.263 113.569,151.154 115.229,151.426 115.229 C 151.583 115.229,152.375 115.904,153.188 116.729 C 154.001 117.554,154.777 118.230,154.912 118.230 C 155.047 118.230,155.970 119.040,156.963 120.030 C 157.957 121.020,158.881 121.830,159.018 121.830 C 159.155 121.830,159.434 122.033,159.640 122.281 C 159.879 122.568,160.542 122.731,161.477 122.731 C 162.282 122.731,162.941 122.866,162.941 123.031 C 162.941 123.200,163.785 123.331,164.874 123.331 C 165.937 123.331,166.882 123.454,166.976 123.605 C 167.069 123.755,168.767 123.975,170.751 124.094 C 172.734 124.212,174.429 124.426,174.518 124.570 C 174.606 124.714,175.743 124.831,177.044 124.831 C 178.345 124.831,179.483 124.950,179.572 125.095 C 179.662 125.240,181.420 125.456,183.480 125.575 C 187.991 125.835,188.546 126.174,188.884 128.878 C 189.092 130.541,188.854 133.142,188.445 133.683 C 188.320 133.848,188.150 134.456,188.066 135.034 C 187.735 137.332,187.192 140.017,186.945 140.585 C 186.801 140.915,186.614 141.658,186.528 142.236 C 186.283 143.895,185.544 147.328,185.025 149.221 C 184.763 150.174,184.463 151.727,184.357 152.672 C 184.251 153.616,184.065 154.524,183.943 154.689 C 183.821 154.854,183.644 155.394,183.549 155.889 C 182.818 159.706,182.648 160.424,182.412 160.675 C 182.266 160.832,182.144 161.305,182.142 161.725 C 182.141 162.146,181.938 163.153,181.692 163.964 C 181.446 164.774,181.245 165.861,181.245 166.379 C 181.245 166.898,181.124 167.450,180.976 167.607 C 180.828 167.764,180.632 168.432,180.542 169.092 C 180.312 170.767,179.588 174.167,179.023 176.227 C 178.762 177.181,178.461 178.734,178.355 179.678 C 178.249 180.623,178.063 181.530,177.941 181.695 C 177.819 181.860,177.642 182.401,177.548 182.896 C 177.307 184.156,176.472 188.061,176.137 189.497 C 175.982 190.158,175.703 191.575,175.516 192.648 C 175.329 193.721,175.066 194.869,174.932 195.199 C 173.862 197.836,173.864 202.289,174.935 205.101 C 175.192 205.775,175.799 208.013,176.034 209.152 C 176.120 209.565,176.296 210.173,176.427 210.503 C 176.661 211.095,177.095 212.660,177.675 215.004 C 178.515 218.399,179.187 220.902,179.446 221.605 C 179.568 221.935,179.903 223.286,180.191 224.606 C 180.478 225.926,180.787 227.209,180.878 227.457 C 180.968 227.704,181.257 228.515,181.519 229.257 C 181.988 230.586,182.017 230.608,183.341 230.608 C 184.871 230.608,184.849 230.653,185.483 225.956 C 185.650 224.719,185.904 223.436,186.048 223.106 C 186.192 222.776,186.382 222.033,186.471 221.455 C 187.352 215.722,187.895 213.710,187.501 217.644 C 187.381 218.833,187.276 220.622,187.265 221.620 C 187.255 222.619,187.123 223.564,186.972 223.721 C 186.821 223.878,186.626 224.816,186.540 225.806 C 186.161 230.142,185.542 235.445,185.368 235.859 C 185.263 236.107,185.114 237.052,185.036 237.959 C 184.958 238.867,184.738 241.095,184.548 242.911 C 184.103 247.157,184.264 250.040,185.044 251.763 C 185.380 252.506,185.889 253.856,186.176 254.764 C 186.463 255.671,186.803 256.684,186.931 257.014 C 187.060 257.344,187.397 258.357,187.681 259.265 C 187.966 260.173,188.303 261.185,188.432 261.515 C 188.560 261.845,188.898 262.858,189.182 263.766 C 189.466 264.674,189.803 265.686,189.932 266.017 C 190.060 266.347,190.398 267.359,190.682 268.267 C 190.966 269.175,191.304 270.188,191.432 270.518 C 191.561 270.848,191.901 271.860,192.187 272.768 C 192.474 273.676,192.886 274.824,193.103 275.319 C 193.320 275.814,194.743 279.966,196.265 284.546 L 199.033 292.873 200.157 292.873 C 201.348 292.873,202.251 291.998,202.251 290.843 C 202.251 290.540,202.358 290.164,202.490 290.008 C 202.622 289.851,202.979 288.980,203.285 288.072 C 203.590 287.164,203.933 286.287,204.046 286.122 C 204.160 285.956,204.488 285.011,204.775 284.021 C 205.062 283.031,205.417 281.950,205.563 281.620 C 205.709 281.290,206.048 280.278,206.317 279.370 C 206.586 278.462,206.923 277.449,207.067 277.119 C 207.211 276.789,207.549 275.776,207.817 274.869 C 208.086 273.961,208.424 272.948,208.567 272.618 C 208.711 272.288,209.049 271.275,209.318 270.368 C 209.586 269.460,209.924 268.447,210.068 268.117 C 210.212 267.787,210.551 266.774,210.823 265.866 C 211.094 264.959,211.502 263.796,211.729 263.283 C 211.956 262.769,213.097 259.478,214.266 255.969 L 216.390 249.589 216.247 246.400 C 216.168 244.646,215.884 241.523,215.614 239.460 C 215.345 237.397,215.058 234.899,214.976 233.908 C 214.895 232.918,214.708 231.838,214.560 231.508 C 214.411 231.178,214.202 229.456,214.093 227.682 C 213.984 225.908,213.774 224.380,213.625 224.288 C 213.475 224.196,213.353 223.278,213.353 222.248 C 213.353 221.218,213.233 220.247,213.085 220.090 C 212.938 219.933,212.749 218.185,212.666 216.204 C 212.583 214.224,212.574 213.076,212.646 213.653 C 212.778 214.713,213.177 216.872,213.701 219.355 C 214.023 220.881,214.805 225.271,215.037 226.857 C 215.122 227.434,215.312 228.177,215.460 228.507 C 215.608 228.837,215.768 229.445,215.816 229.857 C 215.931 230.843,218.336 231.178,218.635 230.250 C 218.731 229.952,218.918 229.437,219.052 229.107 C 219.629 227.679,219.950 226.611,220.223 225.206 C 220.383 224.381,220.667 223.166,220.854 222.506 C 221.040 221.845,221.328 220.698,221.492 219.955 C 221.656 219.212,221.907 218.335,222.050 218.005 C 222.193 217.674,222.380 217.067,222.465 216.654 C 222.702 215.507,223.308 213.274,223.566 212.603 C 224.193 210.966,224.457 210.076,224.724 208.702 C 224.884 207.877,225.160 206.695,225.336 206.077 C 226.130 203.289,226.242 202.548,226.232 200.150 C 226.226 198.747,226.101 196.992,225.955 196.249 C 225.442 193.647,225.309 193.093,225.054 192.498 C 224.912 192.168,224.710 191.124,224.605 190.177 C 224.500 189.231,224.289 188.379,224.135 188.284 C 223.982 188.189,223.856 187.645,223.856 187.075 C 223.856 186.505,223.724 185.804,223.564 185.517 C 223.403 185.231,223.140 184.186,222.980 183.196 C 222.616 180.949,222.359 179.725,222.127 179.145 C 222.029 178.897,221.781 177.749,221.576 176.594 C 221.085 173.820,220.860 172.817,220.567 172.093 C 220.433 171.763,220.170 170.615,219.983 169.542 C 219.796 168.470,219.517 167.052,219.362 166.392 C 218.726 163.670,218.101 160.617,217.949 159.490 C 217.860 158.830,217.680 158.155,217.550 157.989 C 217.419 157.824,217.215 156.879,217.096 155.889 C 216.977 154.899,216.779 153.953,216.655 153.788 C 216.531 153.623,216.354 153.083,216.261 152.588 C 216.169 152.093,215.876 150.675,215.610 149.437 C 215.345 148.200,215.058 146.714,214.972 146.137 C 214.886 145.559,214.699 144.816,214.555 144.486 C 214.411 144.156,214.207 143.112,214.102 142.165 C 213.997 141.219,213.786 140.367,213.632 140.272 C 213.479 140.177,213.353 139.633,213.353 139.063 C 213.353 138.493,213.222 137.792,213.061 137.505 C 212.900 137.219,212.638 136.174,212.477 135.184 C 212.046 132.515,211.844 131.658,211.470 130.889 C 211.215 130.367,211.221 130.052,211.492 129.618 C 211.691 129.300,211.853 128.775,211.853 128.450 C 211.853 127.348,212.515 126.332,213.234 126.332 C 213.610 126.332,213.991 126.213,214.081 126.068 C 214.171 125.923,215.935 125.707,218.001 125.587 C 220.067 125.468,221.832 125.249,221.924 125.101 C 222.016 124.953,222.953 124.831,224.006 124.831 C 225.059 124.831,225.994 124.713,226.084 124.568 C 226.174 124.422,227.938 124.206,230.004 124.087 C 232.070 123.968,233.835 123.749,233.927 123.601 C 234.019 123.452,234.821 123.331,235.709 123.331 C 236.597 123.331,237.407 123.196,237.509 123.031 C 237.611 122.866,238.401 122.731,239.264 122.731 C 240.749 122.731,240.911 122.651,242.311 121.230 C 243.123 120.405,243.934 119.730,244.111 119.730 C 244.288 119.730,245.099 119.055,245.911 118.230 C 246.724 117.404,247.524 116.729,247.688 116.729 C 247.852 116.729,248.668 116.066,249.500 115.256 C 252.234 112.595,254.664 110.428,254.914 110.428 C 255.137 110.428,256.415 109.323,260.109 105.938 C 261.259 104.884,261.393 104.625,261.309 103.614 L 261.215 102.476 255.889 102.394 C 252.959 102.349,250.563 102.196,250.563 102.054 C 250.563 101.687,251.681 101.434,253.321 101.429 C 254.095 101.427,254.812 101.290,254.914 101.125 C 255.016 100.960,255.766 100.825,256.582 100.825 C 257.397 100.825,258.065 100.709,258.065 100.568 C 258.065 100.427,259.449 100.216,261.140 100.100 C 262.832 99.985,264.344 99.763,264.501 99.607 C 264.658 99.452,265.494 99.325,266.359 99.325 C 267.224 99.325,268.004 99.207,268.093 99.064 C 268.182 98.920,269.606 98.707,271.258 98.590 C 272.911 98.473,274.339 98.253,274.433 98.101 C 274.527 97.949,274.934 97.824,275.337 97.824 C 275.739 97.824,276.069 97.704,276.069 97.557 C 276.069 97.410,276.677 96.613,277.419 95.787 C 278.162 94.961,278.770 94.184,278.770 94.061 C 278.770 93.937,279.392 93.147,280.152 92.304 C 280.912 91.462,281.924 90.337,282.402 89.806 C 282.880 89.274,283.271 88.727,283.271 88.591 C 283.271 88.455,283.811 87.816,284.471 87.172 C 285.131 86.527,285.671 85.873,285.671 85.719 C 285.671 85.565,286.215 84.816,286.880 84.055 C 287.545 83.293,288.423 82.266,288.830 81.770 C 289.238 81.275,290.179 80.181,290.922 79.339 C 291.665 78.496,292.273 77.679,292.273 77.522 C 292.273 77.365,292.746 76.779,293.323 76.219 C 293.901 75.659,294.374 75.099,294.374 74.974 C 294.374 74.848,294.711 74.408,295.124 73.996 C 295.867 73.252,296.117 71.800,295.692 70.692 C 295.493 70.173,292.748 69.992,292.448 70.478 C 292.359 70.621,291.614 70.828,290.792 70.937 C 289.970 71.046,289.216 71.266,289.117 71.427 C 289.018 71.587,288.548 71.718,288.072 71.718 C 287.596 71.718,287.132 71.840,287.040 71.988 C 286.948 72.137,286.062 72.353,285.071 72.468 C 284.080 72.583,283.194 72.799,283.103 72.948 C 283.011 73.097,282.546 73.218,282.071 73.218 C 281.595 73.218,281.130 73.340,281.039 73.489 C 280.947 73.638,280.061 73.853,279.070 73.968 C 278.079 74.083,277.193 74.299,277.101 74.448 C 277.009 74.597,276.604 74.719,276.201 74.719 C 275.798 74.719,275.469 74.854,275.469 75.019 C 275.469 75.184,275.123 75.319,274.701 75.319 C 274.265 75.319,274.013 75.189,274.119 75.019 C 274.221 74.854,274.512 74.719,274.766 74.719 C 275.020 74.719,275.654 74.532,276.174 74.304 C 276.694 74.076,277.612 73.671,278.215 73.404 C 278.817 73.137,279.455 72.918,279.631 72.918 C 279.807 72.918,280.433 72.648,281.020 72.318 C 281.608 71.988,282.233 71.718,282.409 71.718 C 282.709 71.718,284.340 71.066,285.381 70.531 C 285.634 70.400,286.274 70.199,286.803 70.083 C 287.332 69.966,287.842 69.747,287.936 69.594 C 288.030 69.442,288.437 69.317,288.840 69.317 C 289.243 69.317,289.572 69.208,289.572 69.074 C 289.572 68.940,290.416 68.582,291.448 68.277 C 292.479 67.973,293.590 67.542,293.915 67.320 C 294.241 67.098,294.720 66.917,294.981 66.917 C 295.598 66.917,297.069 66.231,297.072 65.941 C 297.073 65.818,297.340 65.716,297.664 65.716 C 298.241 65.716,299.730 65.151,301.322 64.328 C 301.760 64.101,302.335 63.916,302.601 63.916 C 303.072 63.916,304.276 63.348,304.576 62.984 C 304.659 62.884,305.243 62.707,305.874 62.591 C 306.505 62.475,307.489 62.118,308.059 61.798 C 308.629 61.477,309.240 61.215,309.416 61.215 C 309.592 61.215,310.196 61.013,310.757 60.765 C 311.319 60.518,312.237 60.113,312.799 59.865 C 313.360 59.617,313.955 59.415,314.121 59.415 C 314.286 59.415,314.941 59.149,315.576 58.825 C 316.210 58.500,317.303 58.090,318.005 57.913 C 318.706 57.736,319.280 57.420,319.280 57.212 C 319.280 57.003,319.752 56.374,320.330 55.814 C 320.908 55.254,321.380 54.668,321.380 54.511 C 321.380 54.354,321.996 53.537,322.750 52.694 C 323.503 51.852,324.549 50.644,325.075 50.010 C 325.601 49.377,326.673 48.148,327.457 47.281 C 328.241 46.413,328.882 45.595,328.882 45.463 C 328.882 45.332,329.493 44.534,330.239 43.692 C 330.984 42.850,331.987 41.688,332.467 41.110 C 332.946 40.533,333.889 39.437,334.561 38.676 C 335.234 37.915,335.784 37.186,335.784 37.057 C 335.784 36.927,336.358 36.184,337.059 35.404 C 337.761 34.624,338.875 33.348,339.535 32.567 C 340.195 31.787,341.309 30.506,342.011 29.721 C 342.712 28.937,343.286 28.188,343.286 28.057 C 343.286 27.926,343.860 27.184,344.561 26.408 C 346.636 24.111,347.787 22.724,347.787 22.519 C 347.787 22.414,348.327 21.800,348.987 21.155 C 349.647 20.511,350.188 19.836,350.188 19.656 C 350.188 19.477,350.795 18.733,351.538 18.005 C 352.281 17.276,352.888 16.557,352.888 16.407 C 352.888 16.257,353.428 15.610,354.089 14.969 C 354.749 14.328,355.289 13.695,355.289 13.563 C 355.289 13.430,355.770 12.856,356.359 12.287 C 357.717 10.974,358.358 9.631,358.236 8.355 C 358.112 7.067,355.728 6.725,354.389 7.803 M355.956 9.938 C 355.630 10.452,354.272 12.174,352.938 13.764 C 351.604 15.353,348.337 19.287,345.679 22.506 C 337.117 32.870,335.955 34.270,334.734 35.690 C 334.074 36.458,332.453 38.411,331.133 40.031 C 323.593 49.280,317.946 55.884,317.378 56.117 C 315.990 56.685,308.162 59.725,305.026 60.913 C 303.211 61.602,301.320 62.350,300.825 62.577 C 297.086 64.288,294.192 65.174,293.829 64.721 C 293.673 64.526,293.317 62.543,293.039 60.315 C 292.760 58.087,292.351 54.846,292.130 53.113 C 291.909 51.380,291.629 49.186,291.509 48.237 C 291.281 46.442,290.957 46.029,290.683 47.187 C 290.596 47.558,289.826 50.293,288.972 53.263 C 288.119 56.234,287.308 59.070,287.171 59.565 C 284.265 70.070,284.593 69.652,281.655 66.585 C 275.180 59.828,271.812 56.051,272.051 55.818 C 272.422 55.457,290.217 45.611,290.498 45.611 C 290.624 45.611,291.108 45.298,291.575 44.914 C 292.041 44.531,293.908 43.410,295.724 42.422 C 302.707 38.626,314.166 32.239,317.179 30.465 C 320.150 28.715,321.800 27.782,325.403 25.814 C 326.244 25.355,329.700 23.433,333.083 21.543 C 340.988 17.128,344.355 15.271,347.937 13.353 C 349.092 12.734,350.375 12.012,350.788 11.748 C 354.592 9.317,356.850 8.526,355.956 9.938 M76.404 26.729 C 79.686 28.557,82.708 30.360,83.121 30.736 C 83.533 31.112,88.462 33.956,94.074 37.055 C 99.685 40.154,105.137 43.166,106.189 43.748 L 108.102 44.805 107.281 45.235 C 105.636 46.097,83.510 55.514,83.130 55.514 C 82.702 55.514,75.481 38.400,70.121 24.681 C 69.414 22.872,69.574 22.924,76.404 26.729 M225.056 30.921 C 225.056 31.093,223.807 32.867,222.281 34.863 C 220.754 36.859,218.874 39.317,218.104 40.326 C 217.333 41.335,215.061 44.306,213.055 46.929 L 209.407 51.698 209.919 57.582 C 210.201 60.818,210.538 64.614,210.668 66.017 C 210.799 67.419,211.105 70.905,211.348 73.763 C 211.592 76.620,211.861 79.028,211.947 79.114 C 212.033 79.199,213.801 80.057,215.876 81.019 C 217.951 81.981,220.125 83.062,220.707 83.422 C 221.758 84.071,221.768 84.072,222.285 83.485 C 222.572 83.159,224.359 82.044,226.257 81.006 C 231.480 78.149,234.428 76.520,241.710 72.471 C 253.287 66.033,255.695 64.748,255.863 64.916 C 255.965 65.017,253.597 69.397,250.602 74.649 L 245.157 84.198 243.584 84.970 C 242.718 85.395,239.647 87.130,236.759 88.827 C 233.871 90.524,227.929 94.000,223.556 96.552 C 219.182 99.104,215.020 101.584,214.307 102.063 C 213.590 102.545,212.852 102.837,212.657 102.717 C 212.462 102.597,210.827 101.381,209.023 100.016 C 207.219 98.650,205.695 97.581,205.637 97.639 C 205.541 97.734,206.373 101.692,208.893 113.128 C 211.494 124.932,211.463 125.393,208.349 121.181 C 199.386 109.058,199.878 109.568,198.782 111.253 C 197.671 112.960,190.772 122.155,190.675 122.058 C 190.562 121.945,190.615 121.690,193.343 109.227 C 196.349 95.493,196.397 95.893,192.135 99.220 C 186.521 103.602,187.382 103.834,184.713 97.224 C 183.946 95.326,183.139 93.368,182.918 92.873 C 180.635 87.747,179.422 84.215,179.812 83.826 C 180.039 83.598,182.095 82.539,184.379 81.473 C 189.369 79.143,188.758 79.752,189.271 76.596 C 189.506 75.151,189.801 73.361,189.927 72.618 C 190.053 71.875,190.449 69.512,190.807 67.367 C 191.165 65.221,191.610 62.768,191.795 61.916 C 192.354 59.343,192.505 59.415,186.524 59.415 C 183.179 59.415,181.210 59.301,181.086 59.099 C 180.903 58.803,182.133 57.462,190.391 48.956 L 193.698 45.549 200.150 42.393 C 203.698 40.658,207.682 38.729,209.002 38.107 C 210.323 37.485,214.171 35.632,217.554 33.988 C 225.126 30.310,225.056 30.338,225.056 30.921 M122.281 52.036 C 126.407 54.315,132.717 57.794,136.303 59.767 C 139.890 61.741,142.897 63.472,142.985 63.615 C 143.299 64.122,143.444 64.088,128.732 66.915 C 125.184 67.597,121.307 68.349,120.118 68.586 C 117.508 69.106,116.534 69.129,116.254 68.676 C 115.862 68.043,109.579 45.770,109.725 45.534 C 109.892 45.264,111.952 46.330,122.281 52.036 M150.532 67.918 C 153.643 69.623,159.430 72.813,163.391 75.006 C 167.352 77.200,172.314 79.946,174.419 81.109 C 176.523 82.273,178.245 83.318,178.245 83.431 C 178.245 83.971,156.771 84.875,155.841 84.374 C 155.338 84.103,144.915 66.218,144.689 65.238 C 144.548 64.624,144.393 64.553,150.532 67.918 M293.903 72.285 C 293.993 72.431,293.097 73.748,291.911 75.210 C 290.724 76.673,288.609 79.287,287.209 81.020 C 285.810 82.753,283.975 84.981,283.133 85.971 C 282.290 86.962,280.303 89.392,278.717 91.373 C 274.397 96.768,275.664 96.489,268.518 93.620 C 257.422 89.165,246.949 84.834,247.043 84.739 C 247.157 84.626,249.417 84.005,254.614 82.657 C 256.759 82.100,258.920 81.453,259.415 81.219 C 260.416 80.744,260.808 80.630,267.217 78.948 C 271.184 77.906,274.425 77.032,282.971 74.698 C 292.809 72.011,293.622 71.831,293.903 72.285 M247.262 103.351 C 256.947 103.610,259.023 103.774,258.906 104.269 C 258.816 104.652,256.204 106.956,244.272 117.179 C 238.786 121.879,239.828 122.428,236.007 112.828 C 234.398 108.785,232.887 105.095,232.651 104.630 C 231.902 103.157,232.405 102.946,236.407 103.057 C 238.333 103.111,243.218 103.243,247.262 103.351 M184.769 103.772 C 185.139 104.007,184.479 104.492,174.344 111.431 C 172.116 112.957,168.563 115.395,166.450 116.851 C 164.337 118.306,162.541 119.431,162.460 119.350 C 162.340 119.229,168.084 104.488,168.539 103.751 C 168.725 103.450,184.293 103.470,184.769 103.772 M219.805 108.014 C 222.116 109.606,225.019 111.612,226.257 112.472 C 227.494 113.331,230.330 115.266,232.558 116.772 C 239.195 121.257,239.102 120.965,234.059 121.507 C 232.161 121.711,229.797 121.996,228.807 122.141 C 227.817 122.285,226.098 122.497,224.987 122.610 L 222.968 122.817 221.726 120.148 C 218.036 112.218,214.854 105.180,214.854 104.951 C 214.854 104.608,214.928 104.654,219.805 108.014 M205.746 128.566 L 209.955 130.951 210.339 132.768 C 210.709 134.519,211.294 137.177,211.863 139.685 C 212.736 143.537,214.063 149.557,214.411 151.238 C 214.633 152.311,215.077 154.404,215.398 155.889 C 215.719 157.374,216.071 159.096,216.181 159.715 L 216.381 160.840 211.641 163.087 C 209.035 164.323,206.564 165.513,206.152 165.732 C 205.106 166.287,205.214 168.932,206.742 180.195 C 207.051 182.477,207.480 186.072,207.975 190.548 C 208.149 192.116,208.413 194.411,208.563 195.649 C 208.714 196.887,209.046 199.722,209.302 201.950 C 209.558 204.179,209.918 207.284,210.102 208.852 C 210.779 214.629,212.722 211.414,191.600 239.460 C 186.019 246.869,186.260 246.776,187.721 240.960 C 188.115 239.392,190.386 230.210,192.769 220.555 C 195.152 210.900,197.862 199.937,198.792 196.192 L 200.482 189.384 200.022 187.190 C 199.503 184.710,199.057 182.675,197.896 177.494 C 197.453 175.514,196.775 172.408,196.391 170.593 C 196.006 168.777,195.602 167.060,195.492 166.776 C 195.291 166.259,198.239 152.250,199.879 145.927 C 200.738 142.611,200.750 142.454,200.750 134.277 C 200.750 127.595,200.826 126.006,201.143 126.085 C 201.359 126.138,203.430 127.255,205.746 128.566 M216.676 162.080 C 216.864 162.433,217.198 163.682,217.418 164.856 C 217.638 166.031,218.034 167.937,218.298 169.092 C 219.003 172.179,219.358 173.748,219.653 175.094 C 220.443 178.695,220.935 180.909,221.155 181.845 C 221.290 182.423,221.630 183.976,221.910 185.296 C 222.190 186.617,222.525 188.170,222.656 188.747 C 222.786 189.325,223.121 190.878,223.401 192.198 C 223.681 193.518,224.022 195.071,224.158 195.649 C 225.104 199.653,225.163 200.370,224.677 202.002 C 224.415 202.881,223.701 205.491,223.091 207.802 C 221.882 212.382,221.877 212.395,221.457 211.974 C 221.138 211.656,208.290 181.174,208.050 180.167 C 207.955 179.769,209.136 176.800,211.271 172.065 C 213.125 167.954,214.958 163.882,215.344 163.016 C 216.137 161.237,216.200 161.192,216.676 162.080 M187.258 167.592 C 188.439 170.233,189.949 173.541,190.614 174.944 C 192.878 179.724,193.883 177.957,178.947 195.445 C 176.366 198.467,176.362 198.469,176.887 196.249 C 177.789 192.433,179.638 183.995,180.076 181.695 C 180.233 180.870,180.617 179.115,180.930 177.794 C 181.953 173.470,182.398 171.207,182.405 170.293 C 182.408 169.797,182.637 168.380,182.912 167.142 C 183.187 165.904,183.510 164.408,183.629 163.818 C 184.181 161.092,184.498 161.421,187.258 167.592 M212.065 211.624 C 211.993 211.998,211.932 211.763,211.929 211.103 C 211.925 210.443,211.984 210.137,212.059 210.424 C 212.134 210.711,212.137 211.251,212.065 211.624 M188.059 214.629 C 187.987 215.000,187.929 214.696,187.929 213.953 C 187.929 213.211,187.987 212.907,188.059 213.278 C 188.130 213.650,188.130 214.257,188.059 214.629 M213.449 236.379 C 213.541 237.331,213.774 239.190,213.965 240.510 C 214.157 241.830,214.353 243.316,214.399 243.811 C 214.446 244.306,214.580 245.589,214.698 246.662 C 214.901 248.500,214.824 248.871,213.365 253.113 C 212.514 255.589,211.020 259.977,210.044 262.866 C 209.068 265.754,206.908 272.101,205.245 276.969 C 203.581 281.838,201.946 286.632,201.611 287.622 C 201.277 288.612,200.879 289.551,200.727 289.707 C 200.558 289.881,200.450 284.017,200.450 274.670 L 200.450 259.348 205.135 249.779 C 207.711 244.516,210.356 239.062,211.012 237.659 C 212.847 233.738,213.175 233.565,213.449 236.379 " stroke="none" fill="#ffffff" fill-rule="evenodd"></path><path id="path2" d="M354.234 10.233 C 351.428 11.714,348.424 13.356,346.887 14.252 C 345.979 14.780,342.806 16.540,339.835 18.162 C 336.864 19.784,332.543 22.217,330.233 23.568 C 327.922 24.919,324.681 26.742,323.031 27.619 C 321.380 28.495,319.456 29.601,318.755 30.075 L 317.479 30.937 317.479 42.947 C 317.479 54.172,317.513 54.951,317.999 54.858 C 318.473 54.766,322.689 49.906,329.428 41.681 C 332.785 37.584,342.322 26.060,350.488 16.235 C 354.126 11.857,355.842 9.602,355.537 9.602 C 355.478 9.602,354.892 9.886,354.234 10.233 M220.851 32.727 C 219.121 33.575,216.624 34.781,215.304 35.407 C 213.140 36.433,203.506 41.104,197.299 44.137 C 193.899 45.798,193.649 46.244,193.190 51.475 C 192.541 58.874,192.795 65.792,194.177 78.320 C 194.368 80.053,194.572 82.348,194.631 83.421 C 194.758 85.762,195.155 90.221,195.620 94.524 C 196.057 98.574,199.370 108.423,200.872 110.136 C 201.383 110.718,203.553 113.597,205.695 116.533 C 207.837 119.469,209.633 121.737,209.688 121.574 C 209.793 121.259,209.410 119.339,207.942 112.828 C 207.000 108.649,206.305 105.460,205.261 100.525 C 204.930 98.957,204.593 97.394,204.512 97.051 C 204.400 96.574,204.594 96.319,205.342 95.963 C 206.564 95.380,220.074 84.410,220.191 83.905 C 220.266 83.582,217.518 82.147,212.828 80.059 C 211.803 79.603,211.546 79.333,211.519 78.681 C 211.459 77.221,211.339 75.817,211.002 72.618 C 210.592 68.733,210.116 63.760,209.927 61.365 C 209.734 58.934,209.233 54.455,208.978 52.876 C 208.806 51.814,208.877 51.473,209.384 50.926 C 209.721 50.561,211.191 48.695,212.651 46.779 C 214.110 44.863,216.318 42.027,217.558 40.477 C 221.485 35.569,224.213 31.829,224.104 31.502 C 224.045 31.325,222.613 31.864,220.851 32.727 M127.827 57.239 C 127.471 57.693,125.199 60.141,122.779 62.678 C 116.766 68.984,116.737 68.595,123.135 67.347 C 131.430 65.728,134.401 65.153,137.961 64.477 C 139.984 64.092,141.599 63.657,141.550 63.510 C 141.444 63.191,129.338 56.453,128.829 56.430 C 128.635 56.421,128.184 56.785,127.827 57.239 M288.372 73.844 C 280.710 75.886,281.716 75.174,280.275 79.577 C 279.664 81.444,278.935 83.713,278.655 84.621 C 278.375 85.529,278.031 86.542,277.891 86.872 C 277.251 88.372,275.739 93.394,275.884 93.538 C 276.040 93.694,276.757 92.917,278.620 90.577 C 279.115 89.955,280.330 88.462,281.320 87.259 C 287.640 79.580,291.356 75.022,292.095 74.044 L 292.944 72.918 292.234 72.961 C 291.843 72.985,290.105 73.382,288.372 73.844 M205.381 137.659 C 203.290 140.754,201.437 143.593,201.263 143.968 C 200.920 144.710,200.122 143.812,211.388 155.359 C 213.519 157.544,215.314 159.279,215.378 159.216 C 215.486 159.108,215.272 157.931,214.582 154.839 C 214.090 152.633,213.067 147.986,212.401 144.936 C 212.058 143.368,211.672 141.613,211.542 141.035 C 211.057 138.874,210.334 135.427,210.017 133.758 C 209.568 131.403,209.660 131.326,205.381 137.659 M200.021 147.991 C 199.850 148.773,198.996 152.567,198.782 153.488 C 198.705 153.818,198.099 156.574,197.435 159.612 C 196.770 162.650,196.149 165.260,196.055 165.412 C 195.961 165.564,196.026 166.252,196.200 166.940 C 196.374 167.629,196.736 169.205,197.005 170.443 C 197.672 173.513,198.180 175.801,198.902 178.995 C 199.239 180.480,199.666 182.472,199.853 183.421 C 200.233 185.352,200.604 185.632,200.846 184.171 C 200.995 183.271,201.142 182.637,201.978 179.295 C 202.144 178.635,202.331 177.689,202.394 177.194 C 202.544 176.024,202.852 174.611,203.081 174.044 C 203.280 173.548,203.903 170.400,204.358 167.592 C 204.647 165.806,204.363 163.313,203.454 159.640 C 203.270 158.897,202.931 157.412,202.701 156.339 C 202.470 155.266,202.132 153.781,201.949 153.038 C 201.766 152.296,201.455 150.754,201.258 149.612 C 200.895 147.505,200.297 146.722,200.021 147.991 M214.706 166.015 C 213.912 167.707,212.348 171.137,211.231 173.637 C 210.114 176.137,208.990 178.588,208.734 179.083 C 208.142 180.229,208.278 180.438,214.217 187.511 C 216.630 190.384,219.398 193.695,220.367 194.867 C 223.630 198.813,223.893 199.075,224.166 198.633 C 224.304 198.411,224.356 198.131,224.283 198.012 C 224.209 197.893,224.018 197.144,223.858 196.347 C 223.698 195.551,223.214 193.278,222.783 191.298 C 222.351 189.317,221.797 186.752,221.550 185.596 C 221.304 184.441,220.992 183.023,220.857 182.446 C 220.723 181.868,220.458 180.585,220.268 179.595 C 220.079 178.605,219.811 177.389,219.674 176.894 C 219.536 176.399,219.260 175.184,219.061 174.194 C 218.861 173.203,218.562 172.056,218.396 171.643 C 218.230 171.230,217.712 169.158,217.244 167.037 C 216.777 164.916,216.339 163.126,216.272 163.059 C 216.205 162.992,215.501 164.322,214.706 166.015 " stroke="none" fill="#ffffff" fill-rule="evenodd"></path></g></svg>